<svg xmlns="http://www.w3.org/2000/svg" xmlns:xlink="http://www.w3.org/1999/xlink" viewBox="0 0 969.04 403.13"><defs><style>.cls-1{fill:#fc0073;}</style><image id="image" width="522" height="522" xlink:href="flowerofthedeadPNG/wholeFlower.png"/></defs><title>Layer 1</title><g id="Layer_2" data-name="Layer 2"><g id="Layer_1-2" data-name="Layer 1"><rect class="cls-1" x="32.1" y="139.48" width="608.28" height="117.68"/><polygon class="cls-1" points="640.37 362.26 782.35 280.29 924.32 198.32 782.35 116.35 640.37 34.38 640.37 198.32 640.37 362.26"/><use transform="translate(0 132.25) scale(0.15)" xlink:href="#image"/><use transform="translate(0 218.95) scale(0.15)" xlink:href="#image"/><use transform="translate(0 177.69) scale(0.15)" xlink:href="#image"/><use transform="translate(47.62 218.95) scale(0.15)" xlink:href="#image"/><use transform="translate(85.82 218.95) scale(0.15)" xlink:href="#image"/><use transform="translate(133.44 218.95) scale(0.15)" xlink:href="#image"/><use transform="translate(184.32 218.95) scale(0.15)" xlink:href="#image"/><use transform="translate(231.93 218.95) scale(0.15)" xlink:href="#image"/><use transform="translate(270.14 218.95) scale(0.15)" xlink:href="#image"/><use transform="translate(293.82 218.95) scale(0.15)" xlink:href="#image"/><use transform="translate(332.02 218.95) scale(0.15)" xlink:href="#image"/><use transform="translate(379.64 218.95) scale(0.15)" xlink:href="#image"/><use transform="translate(430.52 218.95) scale(0.15)" xlink:href="#image"/><use transform="translate(478.13 218.95) scale(0.15)" xlink:href="#image"/><use transform="translate(516.34 218.95) scale(0.15)" xlink:href="#image"/><use transform="translate(601.02 378.31) rotate(-90) scale(0.15)" xlink:href="#image"/><use transform="translate(601.02 340.1) rotate(-90) scale(0.15)" xlink:href="#image"/><use transform="translate(601.02 316.43) rotate(-90) scale(0.15)" xlink:href="#image"/><use transform="translate(601.02 278.22) rotate(-90) scale(0.15)" xlink:href="#image"/><use transform="translate(601.02 230.6) rotate(-90) scale(0.15)" xlink:href="#image"/><use transform="translate(601.02 179.73) rotate(-90) scale(0.15)" xlink:href="#image"/><use transform="translate(601.02 132.11) rotate(-90) scale(0.15)" xlink:href="#image"/><use transform="translate(601.02 93.9) rotate(-90) scale(0.15)" xlink:href="#image"/><use transform="translate(563.96 218.95) scale(0.15)" xlink:href="#image"/><use transform="matrix(0.13, -0.07, 0.07, 0.13, 602.05, 336.38)" xlink:href="#image"/><use transform="matrix(0.13, -0.07, 0.07, 0.13, 622.73, 324.85)" xlink:href="#image"/><use transform="matrix(0.13, -0.07, 0.07, 0.13, 656.11, 306.25)" xlink:href="#image"/><use transform="matrix(0.13, -0.07, 0.07, 0.13, 697.7, 283.06)" xlink:href="#image"/><use transform="matrix(0.13, -0.07, 0.07, 0.13, 742.13, 258.29)" xlink:href="#image"/><use transform="matrix(0.13, -0.07, 0.07, 0.13, 783.72, 235.11)" xlink:href="#image"/><use transform="matrix(0.13, -0.07, 0.07, 0.13, 817.1, 216.5)" xlink:href="#image"/><use transform="matrix(0.13, -0.07, 0.07, 0.13, 858.69, 193.32)" xlink:href="#image"/><use transform="matrix(-0.13, -0.08, 0.08, -0.13, 929.84, 255.52)" xlink:href="#image"/><use transform="matrix(-0.13, -0.08, 0.08, -0.13, 909.52, 243.37)" xlink:href="#image"/><use transform="matrix(-0.13, -0.08, 0.08, -0.13, 876.72, 223.77)" xlink:href="#image"/><use transform="matrix(-0.13, -0.08, 0.08, -0.13, 835.85, 199.35)" xlink:href="#image"/><use transform="matrix(-0.13, -0.08, 0.08, -0.13, 792.18, 173.25)" xlink:href="#image"/><use transform="matrix(-0.13, -0.08, 0.08, -0.13, 751.3, 148.82)" xlink:href="#image"/><use transform="matrix(-0.13, -0.08, 0.08, -0.13, 718.51, 129.22)" xlink:href="#image"/><use transform="matrix(-0.13, -0.08, 0.08, -0.13, 677.63, 104.8)" xlink:href="#image"/><use transform="translate(0 101.27) scale(0.15)" xlink:href="#image"/><use transform="translate(47.62 101.27) scale(0.15)" xlink:href="#image"/><use transform="translate(85.82 101.27) scale(0.15)" xlink:href="#image"/><use transform="translate(133.44 101.27) scale(0.15)" xlink:href="#image"/><use transform="translate(184.32 101.27) scale(0.15)" xlink:href="#image"/><use transform="translate(231.93 101.27) scale(0.15)" xlink:href="#image"/><use transform="translate(270.14 101.27) scale(0.15)" xlink:href="#image"/><use transform="translate(293.82 101.27) scale(0.15)" xlink:href="#image"/><use transform="translate(332.02 101.27) scale(0.15)" xlink:href="#image"/><use transform="translate(379.64 101.27) scale(0.15)" xlink:href="#image"/><use transform="translate(430.52 101.27) scale(0.15)" xlink:href="#image"/><use transform="translate(478.13 101.27) scale(0.15)" xlink:href="#image"/><use transform="translate(516.34 101.27) scale(0.15)" xlink:href="#image"/><use transform="translate(563.96 101.27) scale(0.15)" xlink:href="#image"/></g></g></svg>