<svg xmlns="http://www.w3.org/2000/svg" xmlns:xlink="http://www.w3.org/1999/xlink" viewBox="0 0 887.38 237.22"><defs><image id="image" width="63" height="66" xlink:href="flowerofthedeadPNG/flowe1.png"/></defs><title>path</title><g id="Layer_2" data-name="Layer 2"><g id="Layer_3" data-name="Layer 3"><use transform="matrix(0.54, 0, 0, -0.54, 85.81, 172.99)" xlink:href="#image"/><use transform="matrix(0.54, 0, 0, -0.54, 178.1, 215.79)" xlink:href="#image"/><use transform="matrix(0.54, 0, 0, -0.54, 114.57, 159.76)" xlink:href="#image"/><use transform="matrix(0.54, 0, 0, -0.54, 119.45, 186.08)" xlink:href="#image"/><use transform="matrix(0.54, 0, 0, -0.54, 148.21, 172.84)" xlink:href="#image"/><use transform="matrix(0.54, 0, 0, -0.54, 145.62, 197.6)" xlink:href="#image"/><use transform="translate(13.21 105.37) rotate(21.64) scale(0.54)" xlink:href="#image"/><use transform="translate(35.06 128.28) rotate(21.64) scale(0.54)" xlink:href="#image"/><use transform="translate(49.3 105.61) rotate(21.64) scale(0.54)" xlink:href="#image"/><use transform="translate(71.15 128.52) rotate(21.64) scale(0.54)" xlink:href="#image"/><use transform="translate(77.88 104.56) rotate(21.64) scale(0.54)" xlink:href="#image"/><use transform="matrix(0.54, 0, 0, -0.54, 174.39, 184.36)" xlink:href="#image"/><use transform="matrix(0.44, -0.32, -0.32, -0.44, 216.23, 237.22)" xlink:href="#image"/><use transform="matrix(0.44, -0.32, -0.32, -0.44, 316.12, 217.97)" xlink:href="#image"/><use transform="matrix(0.44, -0.32, -0.32, -0.44, 231.82, 209.67)" xlink:href="#image"/><use transform="matrix(0.44, -0.32, -0.32, -0.44, 251.17, 228.17)" xlink:href="#image"/><use transform="matrix(0.44, -0.32, -0.32, -0.44, 266.76, 200.61)" xlink:href="#image"/><use transform="matrix(0.44, -0.32, -0.32, -0.44, 279.14, 222.21)" xlink:href="#image"/><use transform="matrix(0.44, -0.32, -0.32, -0.44, 294.73, 194.65)" xlink:href="#image"/><use transform="translate(440.64 102.48) scale(0.87)" xlink:href="#image"/><use transform="translate(587.9 34.21) scale(0.87)" xlink:href="#image"/><use transform="translate(486.53 123.6) scale(0.87)" xlink:href="#image"/><use transform="translate(494.31 81.6) scale(0.87)" xlink:href="#image"/><use transform="translate(540.2 102.73) scale(0.87)" xlink:href="#image"/><use transform="translate(536.08 63.22) scale(0.87)" xlink:href="#image"/><use transform="matrix(0.8, -0.32, -0.32, -0.8, 324.8, 210.39)" xlink:href="#image"/><use transform="matrix(0.8, -0.32, -0.32, -0.8, 359.66, 173.83)" xlink:href="#image"/><use transform="matrix(0.8, -0.32, -0.32, -0.8, 382.38, 210)" xlink:href="#image"/><use transform="matrix(0.8, -0.32, -0.32, -0.8, 417.25, 173.44)" xlink:href="#image"/><use transform="matrix(0.8, -0.32, -0.32, -0.8, 427.98, 211.68)" xlink:href="#image"/><use transform="translate(581.97 84.34) scale(0.87)" xlink:href="#image"/><use transform="matrix(0.7, 0.51, -0.51, 0.7, 648.74, 0)" xlink:href="#image"/><use transform="matrix(0.7, 0.51, -0.51, 0.7, 808.12, 30.73)" xlink:href="#image"/><use transform="matrix(0.7, 0.51, -0.51, 0.7, 673.61, 43.97)" xlink:href="#image"/><use transform="matrix(0.7, 0.51, -0.51, 0.7, 704.48, 14.45)" xlink:href="#image"/><use transform="matrix(0.7, 0.51, -0.51, 0.7, 729.36, 58.42)" xlink:href="#image"/><use transform="matrix(0.7, 0.51, -0.51, 0.7, 749.11, 23.96)" xlink:href="#image"/><use transform="matrix(0.7, 0.51, -0.51, 0.7, 773.99, 67.93)" xlink:href="#image"/><use transform="matrix(0.7, 0.51, -0.51, 0.7, 843.14, 70.29)" xlink:href="#image"/></g></g></svg>