<?xml version="1.0" encoding="utf-8"?>
<!-- Generator: Adobe Illustrator 22.0.1, SVG Export Plug-In . SVG Version: 6.00 Build 0)  -->
<svg version="1.1" id="Layer_1" xmlns="http://www.w3.org/2000/svg" xmlns:xlink="http://www.w3.org/1999/xlink" x="0px" y="0px"
	 viewBox="0 0 319.1 395.4" style="enable-background:new 0 0 319.1 395.4;" xml:space="preserve">
<style type="text/css">
	.st0{fill:#442401;}
	.st1{fill:#472700;}
	.st2{fill:#FE9207;}
	.st3{fill:none;stroke:#442401;stroke-width:0.43;stroke-miterlimit:10;}
</style>
<title>butterfly</title>
<g id="Layer_2_1_">
	<g id="butterfly">
		<path class="st0" d="M69.2,84.3c0.1,21.9-6.4,13.8-6.5,22.3c-0.1,8.5-0.4,17.6-2.7,17.6c0,0,13.3,17.1,2.8,26.9
			c-0.9,1.8-18.4,32.9-48.1-11.9c0,0,0.6,2.8-3.2,0.9C7.7,138.2,55.8,63.1,69.2,84.3z"/>
		<path class="st1" d="M7.8,128.6c0,0,35.8-66.5,52.4-47.8c3.6,21.6-4.1,14.7-2.8,23s2.5,17.4,0.2,17.8c0,0,15.9,14.7,7.1,26.1
			c-0.6,2-12.7,35.4-49.4-3.8c0,0,1,2.7-3,1.4s-9.8-9.7-9.8-9.7s-7.1-2.5-0.6-5.4C8.4,127.3,7.8,128.6,7.8,128.6z"/>
		<path class="st2" d="M30.7,128.3c-0.4,1.7,1.1,0.6,2.1,0.4c1-0.2,16.4-4,16.3-4.6c-0.2-0.5-2.9-3.8-4-3.8
			C44.1,120.5,31.4,125.3,30.7,128.3z"/>
		<path class="st2" d="M35.2,129.5c-0.3,3.8,12.1,1,20.8,0.7c0,0-0.2-5.2-2.4-5.1S36,129.1,35.2,129.5z"/>
		<path class="st2" d="M40.1,132.7c0,0,5.6,2.6,7.8,3.1c1.9-0.8,8.7,0.9,10.6,2.5c2-1.4,1.9-6.1,0.8-6.3S46.4,131.3,40.1,132.7z"/>
		<path class="st2" d="M46.2,138.9c-0.2,0.3,8.8,4.3,10.6,6.1c3.5-0.6,3-5.7,2-5.9C57.8,139,49.1,135.4,46.2,138.9z"/>
		<path class="st2" d="M37.3,140.7c2.6,1.5,5.2,2.7,8,3.8c3.5,2.9,5.2,7.2,7,6.7c1.8-0.6,4.5-4.4,4.1-4.9S44,136.5,37.3,140.7z"/>
		<path class="st2" d="M19.4,138.5c-1.3,0.6,27.5,19.1,28.3,18.1c0.8-1,2.9-5,2.3-5.6C49.4,150.3,26.1,135.5,19.4,138.5z"/>
		<path class="st2" d="M17.1,140.4c7,11.6,24,19.1,23.3,20.7C39,159,10.9,146.6,17.1,140.4z"/>
		<path class="st2" d="M18.7,140.5c0,0,27.3,16.4,27.4,17c0.2,0.6-3.2,3.8-4.4,3.2C40.6,160.1,18.3,145.2,18.7,140.5z"/>
		<path class="st2" d="M18.4,135.3c-1.8,1,22.7,4.7,26.9,1.6c-3.2-5.1-8.7-3.4-10.7-4.5C32.7,131.4,34.3,126.9,18.4,135.3z"/>
		<path class="st2" d="M18.7,132.7c0.4-3.4-1.6-6.8,13.2-10.2c-1.6,2.3-1,1.6-1.4,2.9S27.4,130,18.7,132.7z"/>
		<path class="st2" d="M14.5,133.9c1.2,0.5-1.2-3.3-0.2-3.5c1-0.2,0.7,2.4,2,1.8s2.6-6.5,4.3-7.2C17.8,125.4,6.6,130.3,14.5,133.9z"
			/>
		<path class="st2" d="M12,129.3c0,0,10.5-25.8,13.1-22.5c1.4,0.5,2.4-2.9,4.6-1.7c2.1,1.1,4-3.7,3.6-0.6S25.9,119.2,12,129.3z"/>
		<path class="st2" d="M32,109.5c1.5-6.2,7.3-10.4,13.7-10c-0.7,1.1,2.1,0.7,2.3,1.6c0.2,0.9-2.2,2.9-2,3.9
			C46.2,106,32,109.5,32,109.5z"/>
		<path class="st2" d="M26.5,117.3c0,0,3.8-6,5.5-6.4c1.2-0.3,12-5.4,16.4-4.3c2,0.5,2,4.3,0.2,7C48.5,113.5,26.9,118.2,26.5,117.3z
			"/>
		<path class="st2" d="M19.6,124.1c0,0,5.8-5.2,7.8-5.5c1.5-0.3,16.4-3.1,22.5-3.7c2,0.4,2.5,2,1.8,3.8
			C48.1,116.3,28.3,119.8,19.6,124.1z"/>
		<line class="st3" x1="2.3" y1="130.7" x2="1.1" y2="124.4"/>
		<line class="st3" x1="4.7" y1="129.8" x2="6" y2="122.7"/>
		<circle class="st1" cx="1" cy="123.9" r="1"/>
		<circle class="st1" cx="6.1" cy="122" r="1"/>
		<path class="st0" d="M82.3,219.6c0.1,21.9-6.4,13.8-6.5,22.3c-0.1,8.5-0.4,17.6-2.7,17.6c0,0,13.3,17.1,2.8,26.9
			c-0.9,1.8-18.4,32.9-48.1-11.9c0,0,0.6,2.8-3.2,0.9S69,198.4,82.3,219.6z"/>
		<path class="st1" d="M20.9,263.8c0,0,35.8-66.5,52.4-47.8c3.6,21.6-4,14.7-2.7,23.1c1.3,8.3,2.5,17.4,0.2,17.7
			c0,0,15.9,14.7,7.1,26.1c-0.6,2-12.7,35.5-49.4-3.8c0,0,1,2.7-3,1.4c-4-1.2-9.8-9.6-9.8-9.6s-7.1-2.5-0.6-5.4
			C21.6,262.5,20.9,263.8,20.9,263.8z"/>
		<path class="st2" d="M43.8,263.6c-0.4,1.7,1.1,0.6,2.1,0.4s16.4-4,16.2-4.5s-3-3.8-4-3.8S44.5,260.6,43.8,263.6z"/>
		<path class="st2" d="M48.3,264.7c-0.3,3.8,12.1,1,20.7,0.7c0,0-0.2-5.2-2.5-5.1S49.1,264.3,48.3,264.7z"/>
		<path class="st2" d="M53.2,267.9c0,0,5.6,2.6,7.8,3.1c1.9-0.8,8.7,0.9,10.6,2.5c2-1.4,1.9-6.1,0.8-6.3
			C71.4,267.1,59.5,266.5,53.2,267.9z"/>
		<path class="st2" d="M59.3,274.2c-0.2,0.3,8.8,4.3,10.6,6.1c3.5-0.6,3-5.7,2-5.9C70.9,274.2,62.2,270.7,59.3,274.2z"/>
		<path class="st2" d="M50.4,276c2.6,1.5,5.2,2.7,8,3.8c3.5,2.9,5.2,7.2,7,6.7s4.5-4.5,4.1-4.9C69.2,281.1,57.1,271.8,50.4,276z"/>
		<path class="st2" d="M32.5,273.7c-1.3,0.6,27.5,19.1,28.3,18.1s2.9-4.9,2.3-5.6C62.5,285.5,39.2,270.8,32.5,273.7z"/>
		<path class="st2" d="M30.2,275.7c7,11.6,24,19.1,23.3,20.7C52.1,294.3,24,281.9,30.2,275.7z"/>
		<path class="st2" d="M31.8,275.8c0,0,27.3,16.3,27.4,17c0.2,0.6-3.2,3.8-4.4,3.2C53.7,295.4,31.4,280.5,31.8,275.8z"/>
		<path class="st2" d="M31.5,270.6c-1.8,1,22.7,4.7,26.9,1.6c-3.2-5.1-8.6-3.4-10.7-4.5C45.8,266.7,47.4,262.2,31.5,270.6z"/>
		<path class="st2" d="M31.8,268c0.4-3.4-1.6-6.8,13.2-10.2c-1.6,2.3-1,1.6-1.4,2.9C43.2,262.1,40.5,265.2,31.8,268z"/>
		<path class="st2" d="M27.6,269.2c1.2,0.5-1.2-3.3-0.2-3.5s0.6,2.4,2,1.8c1.3-0.6,2.6-6.5,4.3-7.2
			C30.9,260.6,19.7,265.6,27.6,269.2z"/>
		<path class="st2" d="M25.1,264.6c0,0,10.5-25.8,13.1-22.5c1.4,0.5,2.4-2.9,4.6-1.7s4-3.7,3.6-0.6C46,242.9,39.1,254.5,25.1,264.6z
			"/>
		<path class="st2" d="M45.1,244.7c1.5-6.2,7.3-10.4,13.7-10c-0.7,1.1,2.1,0.7,2.3,1.6c0.2,0.9-2.2,2.9-2,3.9S45.1,244.7,45.1,244.7
			z"/>
		<path class="st2" d="M39.6,252.5c0,0,3.8-6,5.5-6.4c1.2-0.3,12-5.4,16.4-4.3c2,0.5,2,4.3,0.2,7C61.6,248.8,40.1,253.5,39.6,252.5z
			"/>
		<path class="st2" d="M32.7,259.3c0,0,5.8-5.2,7.8-5.6c1.5-0.3,16.4-3.1,22.5-3.7c2,0.4,2.5,2,1.8,3.8
			C61.2,251.6,41.4,255.1,32.7,259.3z"/>
		<line class="st3" x1="15.4" y1="265.9" x2="14.3" y2="259.6"/>
		<line class="st3" x1="17.8" y1="265" x2="19.1" y2="258"/>
		<circle class="st1" cx="14.1" cy="259.2" r="1"/>
		<circle class="st1" cx="19.2" cy="257.3" r="1"/>
		<path class="st0" d="M289.2,72.7c0.1,21.9-6.4,13.9-6.5,22.3c-0.1,8.5-0.4,17.6-2.7,17.6c0,0,13.3,17.1,2.8,26.9
			c-0.9,1.8-18.4,32.9-48.1-11.9c0,0,0.6,2.8-3.2,0.9C227.8,126.7,275.9,51.5,289.2,72.7z"/>
		<path class="st1" d="M227.8,117c0,0,35.8-66.5,52.4-47.8c3.6,21.6-4,14.7-2.7,23.1s2.5,17.4,0.2,17.8c0,0,15.9,14.7,7.1,26.1
			c-0.6,2-12.7,35.4-49.4-3.8c0,0,1,2.7-3,1.4c-4-1.2-9.8-9.7-9.8-9.7s-7.1-2.5-0.6-5.4S227.8,117,227.8,117z"/>
		<path class="st2" d="M250.8,116.7c-0.4,1.7,1.1,0.6,2.1,0.4c1-0.2,16.4-4,16.2-4.5c-0.2-0.6-3-3.8-4-3.8S251.5,113.7,250.8,116.7z
			"/>
		<path class="st2" d="M255.3,117.9c-0.3,3.8,12.1,1,20.7,0.7c0,0-0.2-5.2-2.5-5.1S256.1,117.5,255.3,117.9z"/>
		<path class="st2" d="M260.2,121.1c0,0,5.6,2.5,7.8,3.2c1.9-0.8,8.7,0.9,10.6,2.5c2-1.4,1.9-6.1,0.8-6.3S266.5,119.7,260.2,121.1z"
			/>
		<path class="st2" d="M266.3,127.3c-0.2,0.3,8.8,4.3,10.6,6.2c3.5-0.6,3-5.7,2-5.9S269.2,123.8,266.3,127.3z"/>
		<path class="st2" d="M257.4,129.1c2.5,1.5,5.2,2.7,8,3.7c3.5,2.9,5.2,7.2,7.1,6.7s4.5-4.5,4.1-4.9
			C276.2,134.3,264.1,124.9,257.4,129.1z"/>
		<path class="st2" d="M239.4,126.8c-1.3,0.6,27.5,19.1,28.3,18.1c0.8-1,2.9-5,2.3-5.6C269.5,138.7,246.2,123.9,239.4,126.8z"/>
		<path class="st2" d="M237.2,128.8c7,11.6,24,19.1,23.3,20.7C259.1,147.4,231,135,237.2,128.8z"/>
		<path class="st2" d="M238.8,128.9c0,0,27.2,16.3,27.4,17s-3.2,3.8-4.4,3.2S238.4,133.6,238.8,128.9z"/>
		<path class="st2" d="M238.5,123.7c-1.8,1,22.7,4.6,26.9,1.6c-3.2-5.1-8.6-3.4-10.7-4.5S254.4,115.3,238.5,123.7z"/>
		<path class="st2" d="M238.8,121.1c0.4-3.4-1.6-6.8,13.2-10.2c-1.6,2.3-1,1.6-1.4,2.9C250.2,115.2,247.5,118.4,238.8,121.1z"/>
		<path class="st2" d="M234.6,122.3c1.2,0.5-1.2-3.3-0.2-3.5c1-0.2,0.6,2.4,2,1.8c1.3-0.6,2.6-6.5,4.3-7.2
			C237.9,113.8,226.7,118.7,234.6,122.3z"/>
		<path class="st2" d="M232.1,117.7c0,0,10.5-25.8,13.1-22.5c1.4,0.5,2.4-2.9,4.6-1.7c2.1,1.1,4-3.7,3.6-0.6
			C252.9,96,246.1,107.6,232.1,117.7z"/>
		<path class="st2" d="M252.1,97.9c1.5-6.2,7.3-10.4,13.7-10c-0.7,1.1,2.1,0.7,2.3,1.6c0.2,0.9-2.2,2.9-2,3.9
			C266.3,94.4,252.1,97.9,252.1,97.9z"/>
		<path class="st2" d="M246.6,105.6c0,0,3.8-6,5.5-6.4c1.2-0.3,12-5.4,16.4-4.3c2,0.5,2,4.3,0.2,7
			C268.6,101.9,247,106.6,246.6,105.6z"/>
		<path class="st2" d="M239.6,112.5c0,0,5.8-5.2,7.8-5.5c1.5-0.3,16.4-3.1,22.5-3.7c2,0.4,2.5,2,1.8,3.8
			C268.2,104.7,248.4,108.2,239.6,112.5z"/>
		<line class="st3" x1="222.4" y1="119.1" x2="221.2" y2="112.8"/>
		<line class="st3" x1="224.8" y1="118.2" x2="226.1" y2="111.1"/>
		<circle class="st1" cx="221.1" cy="112.3" r="1"/>
		<circle class="st1" cx="226.2" cy="110.4" r="1"/>
		<path class="st0" d="M141.7,124.6c0.1,21.9-6.4,13.9-6.5,22.3c-0.1,8.5-0.4,17.6-2.7,17.6c0,0,13.3,17.1,2.8,26.9
			c-0.9,1.8-18.4,32.9-48.1-11.9c0,0,0.6,2.8-3.2,0.9C80.3,178.5,128.4,103.4,141.7,124.6z"/>
		<path class="st1" d="M80.3,168.9c0,0,35.8-66.5,52.4-47.8c3.6,21.6-4,14.7-2.7,23.1s2.5,17.4,0.2,17.8c0,0,15.9,14.7,7.1,26.1
			c-0.6,2-12.7,35.5-49.4-3.8c0,0,1,2.7-3,1.4s-9.8-9.7-9.8-9.7s-7.1-2.5-0.6-5.4C81.1,167.5,80.3,168.9,80.3,168.9z"/>
		<path class="st2" d="M103.3,168.6c-0.4,1.7,1.1,0.6,2.1,0.4c1-0.2,16.4-4,16.2-4.5s-3-3.8-4-3.8
			C116.7,160.8,104,165.6,103.3,168.6z"/>
		<path class="st2" d="M107.8,169.8c-0.3,3.8,12.1,1,20.7,0.7c0,0-0.2-5.2-2.5-5.1C123.8,165.5,108.6,169.4,107.8,169.8z"/>
		<path class="st2" d="M112.7,173c0,0,5.6,2.5,7.8,3.1c1.9-0.8,8.7,0.9,10.6,2.5c2-1.4,1.9-6.1,0.8-6.3S119,171.6,112.7,173z"/>
		<path class="st2" d="M118.8,179.2c-0.2,0.3,8.8,4.3,10.6,6.1c3.5-0.6,3-5.7,2-5.9C130.4,179.2,121.7,175.7,118.8,179.2z"/>
		<path class="st2" d="M109.9,181c2.6,1.5,5.2,2.7,8,3.8c3.5,2.9,5.2,7.2,7,6.7s4.5-4.5,4.1-4.9C128.7,186.1,116.6,176.8,109.9,181z
			"/>
		<path class="st2" d="M92,178.8c-1.3,0.6,27.5,19.1,28.3,18.1c0.8-1,2.9-4.9,2.3-5.6C122,190.6,98.8,175.8,92,178.8z"/>
		<path class="st2" d="M89.7,180.7c7,11.6,24,19.1,23.3,20.7C111.6,199.3,83.5,186.9,89.7,180.7z"/>
		<path class="st2" d="M91.3,180.8c0,0,27.3,16.3,27.4,17c0.2,0.6-3.2,3.8-4.4,3.2C113.2,200.4,90.9,185.5,91.3,180.8z"/>
		<path class="st2" d="M91,175.6c-1.8,1,22.7,4.6,26.9,1.6c-3.2-5.1-8.6-3.4-10.7-4.5S106.9,167.2,91,175.6z"/>
		<path class="st2" d="M91.3,173c0.4-3.4-1.6-6.9,13.2-10.2c-1.6,2.3-1,1.6-1.4,2.9C102.7,167.1,100,170.3,91.3,173z"/>
		<path class="st2" d="M87.1,174.2c1.2,0.5-1.2-3.3-0.2-3.5c1-0.2,0.6,2.4,2,1.8s2.6-6.5,4.3-7.2C90.4,165.7,79.2,170.6,87.1,174.2z
			"/>
		<path class="st2" d="M84.6,169.6c0,0,10.5-25.8,13.1-22.5c1.4,0.5,2.4-2.9,4.6-1.7c2.1,1.1,4-3.7,3.6-0.6
			C105.5,147.9,98.6,159.5,84.6,169.6z"/>
		<path class="st2" d="M104.6,149.8c1.5-6.2,7.3-10.4,13.7-10c-0.7,1.1,2.1,0.7,2.3,1.6c0.2,0.9-2.2,2.9-2,3.9
			C118.8,146.3,104.6,149.8,104.6,149.8z"/>
		<path class="st2" d="M99.1,157.6c0,0,3.8-6,5.5-6.4c1.2-0.3,12-5.4,16.4-4.3c2,0.5,2,4.3,0.2,7C121.1,153.8,99.6,158.5,99.1,157.6
			z"/>
		<path class="st2" d="M92.2,164.4c0,0,5.8-5.2,7.8-5.6c1.5-0.3,16.4-3.1,22.5-3.7c2,0.4,2.5,2,1.8,3.8
			C120.7,156.6,100.9,160.1,92.2,164.4z"/>
		<line class="st3" x1="74.9" y1="170.9" x2="73.7" y2="164.7"/>
		<line class="st3" x1="77.3" y1="170" x2="78.6" y2="163"/>
		<circle class="st1" cx="73.6" cy="164.2" r="1"/>
		<circle class="st1" cx="78.7" cy="162.3" r="1"/>
		<path class="st1" d="M244.7,241.7c36.6,39.3,48.7,5.8,49.4,3.8c8.8-11.5-7.1-26.1-7.1-26.1c2.3-0.4,1.1-9.4-0.2-17.8
			c-1.3-8.3,6.4-1.5,2.7-23.1c-15.9-18-49.6,42.6-52.3,47.5l-0.3,0.1c-1.2,0.1-2.4,0.4-3.6,1l-0.3,0.1c-4.8-2.8-64.9-37.3-69.3-13.7
			c8,20.4,11,10.5,14.3,18.3s6.9,16.2,9,15.3c0,0-6,20.8,7.4,26.1c1.6,1.3,29.2,23.8,40.3-28.8c0,0,7.4,15.5,10.2,12.3L244.7,241.7z
			"/>
		<path class="st2" d="M260,226.2c-0.4,1.7,1.1,0.6,2.1,0.4c1-0.2,16.4-4,16.2-4.5c-0.2-0.6-3-3.8-4-3.8
			C273.3,218.4,260.7,223.1,260,226.2z"/>
		<path class="st2" d="M264.4,227.3c-0.3,3.8,12.1,1,20.7,0.7c0,0-0.2-5.2-2.5-5.1C280.5,223.1,265.3,226.9,264.4,227.3z"/>
		<path class="st2" d="M269.4,230.5c0,0,5.6,2.6,7.8,3.2c1.9-0.8,8.7,0.9,10.6,2.5c2-1.4,1.9-6.1,0.8-6.3
			C287.5,229.7,275.7,229.1,269.4,230.5z"/>
		<path class="st2" d="M275.4,236.8c-0.2,0.3,8.8,4.3,10.6,6.1c3.5-0.6,3-5.7,2-5.9C287,236.8,278.3,233.2,275.4,236.8z"/>
		<path class="st2" d="M266.6,238.5c2.5,1.5,5.2,2.7,8,3.7c3.5,2.9,5.2,7.2,7.1,6.7s4.5-4.5,4.1-4.9
			C285.4,243.7,273.2,234.4,266.6,238.5z"/>
		<path class="st2" d="M248.6,236.3c-1.3,0.6,27.5,19.1,28.3,18.1c0.8-1,2.9-4.9,2.3-5.6C278.6,248.1,255.4,233.4,248.6,236.3z"/>
		<path class="st2" d="M246.4,238.2c7,11.6,24,19.1,23.3,20.7C268.3,256.9,240.1,244.4,246.4,238.2z"/>
		<path class="st2" d="M247.9,238.4c0,0,27.2,16.3,27.4,17c0.2,0.7-3.2,3.8-4.4,3.2S247.5,243,247.9,238.4z"/>
		<path class="st2" d="M247.7,233.1c-1.8,1,22.7,4.6,26.9,1.6c-3.2-5.1-8.6-3.4-10.7-4.5S263.5,224.7,247.7,233.1z"/>
		<path class="st2" d="M248,230.6c0.4-3.4-1.6-6.8,13.2-10.2c-1.6,2.3-1,1.6-1.4,2.9C259.4,224.6,256.7,227.8,248,230.6z"/>
		<path class="st2" d="M243.8,231.7c1.2,0.5-1.2-3.2-0.2-3.5c1-0.2,0.7,2.4,2,1.8c1.3-0.6,2.6-6.5,4.3-7.2
			C247.1,223.2,235.8,228.1,243.8,231.7z"/>
		<path class="st2" d="M241.2,227.2c0,0,10.5-25.8,13.1-22.5c1.4,0.5,2.4-2.9,4.6-1.7c2.1,1.1,4-3.7,3.6-0.6
			C262.1,205.5,255.2,217.1,241.2,227.2z"/>
		<path class="st2" d="M261.3,207.3c1.5-6.2,7.3-10.4,13.7-10c-0.7,1.1,2.1,0.7,2.3,1.6c0.2,0.9-2.2,2.9-2,3.9
			S261.3,207.3,261.3,207.3z"/>
		<path class="st2" d="M255.8,215.1c0,0,3.8-6,5.5-6.4c1.2-0.3,12-5.4,16.4-4.3c2,0.5,2,4.3,0.2,7
			C277.8,211.3,256.2,216,255.8,215.1z"/>
		<path class="st2" d="M248.8,221.9c0,0,5.8-5.2,7.8-5.5c1.5-0.3,16.4-3.1,22.5-3.7c2,0.4,2.5,2,1.8,3.8
			C277.3,214.1,257.5,217.6,248.8,221.9z"/>
		<line class="st3" x1="234" y1="228.2" x2="232.8" y2="221.9"/>
		<circle class="st1" cx="232.6" cy="221.4" r="1"/>
		<path class="st2" d="M213.5,239.1c1.2,1.3-0.6,1.1-1.6,1.5c-0.9,0.4-16.1,5.1-16.2,4.5c-0.2-0.6,0.5-4.8,1.5-5.3
			S211.3,236.9,213.5,239.1z"/>
		<path class="st2" d="M210.3,242.4c2.2,3.1-9.9,7.1-17.4,11.3c0,0-2.5-4.6-0.5-5.6S209.4,242.5,210.3,242.4z"/>
		<path class="st2" d="M207.7,247.7c0,0-3.5,5.1-5.1,6.7c-2.1,0.3-6.9,5.3-7.8,7.6c-2.4-0.2-4.7-4.2-3.9-4.9
			C191.7,256.3,201.6,249.7,207.7,247.7z"/>
		<path class="st2" d="M205.7,256.1c0.4,0.1-5.3,8.2-5.9,10.7c-3.3,1.2-5.5-3.3-4.8-4C195.8,262.2,201.4,254.6,205.7,256.1z"/>
		<path class="st2" d="M214.2,253.1c-1.4,2.6-3.1,5-4.9,7.3c-1.5,4.3-0.7,8.9-2.6,9.4c-1.8,0.5-6.1-1.5-6-2
			C200.8,267.2,206.4,253,214.2,253.1z"/>
		<path class="st2" d="M228.5,241.9c1.4-0.2-13.7,30.6-14.9,30.1c-1.2-0.5-5.1-2.7-4.9-3.6S221.2,242.9,228.5,241.9z"/>
		<path class="st2" d="M231.4,242.4c0,13.6-10.7,28.7-9.2,29.7C222.2,269.7,239.9,244.5,231.4,242.4z"/>
		<path class="st2" d="M230.1,243.3c0,0-14.9,28-14.7,28.7c0.2,0.7,4.7,1.6,5.4,0.5C221.5,271.4,232.9,247.1,230.1,243.3z"/>
		<path class="st2" d="M227.6,238.7c2-0.1-17,15.7-22.2,15.3c0.2-6,5.6-7.4,6.8-9.3S209.7,239.7,227.6,238.7z"/>
		<path class="st2" d="M226.1,236.6c-2.1-2.7-2.2-6.7-16.6-1.9c2.5,1.1,1.7,0.9,2.7,1.8C213.2,237.4,217.2,238.8,226.1,236.6z"/>
		<path class="st2" d="M230.2,235.5c-0.7,1-0.6-3.4-1.6-3.1c-1,0.3,0.7,2.4-0.7,2.6s-5.6-4.3-7.4-4
			C223,229.9,235.2,228.3,230.2,235.5z"/>
		<path class="st2" d="M230.1,230.3c0,0-22.3-16.6-22.9-12.5c-0.9,1.2-3.5-1.2-4.8,0.9s-5.3-1.1-3.4,1.4
			C201,222.5,212.9,228.9,230.1,230.3z"/>
		<path class="st2" d="M202.7,223.6c-4.5-4.5-11.6-5.2-16.9-1.5c1.2,0.6-1.4,1.7-1.2,2.6c0.3,0.9,3.4,1.4,3.8,2.3
			S202.7,223.6,202.7,223.6z"/>
		<path class="st2" d="M211.4,227.4c0,0-6.3-3.2-8-2.7c-1.2,0.3-13.1,1.6-16.2,4.7c-1.4,1.4,0.6,4.7,3.5,6.1
			C190.6,235.6,211.5,228.5,211.4,227.4z"/>
		<path class="st2" d="M220.9,229.7c0,0-7.7-1.4-9.5-0.7c-1.4,0.5-15.6,5.8-21.2,8.5c-1.5,1.4-1.2,3,0.4,4.2
			C192.4,237.8,211.2,230.5,220.9,229.7z"/>
		<line class="st3" x1="236" y1="227.6" x2="235.7" y2="221.2"/>
		<circle class="st1" cx="235.8" cy="220.7" r="1"/>
		<path class="st1" d="M164.6,358c36.6,39.3,48.7,5.8,49.4,3.8c8.8-11.4-7.1-26.1-7.1-26.1c2.3-0.4,1.1-9.4-0.2-17.8
			c-1.3-8.4,6.4-1.5,2.7-23.1c-15.9-18-49.6,42.6-52.2,47.5l-0.3,0.1c-0.6,0-1.3,0.1-1.8,0.3c-0.6,0.1-1.2,0.3-1.7,0.7l-0.3,0.1
			c-4.8-2.8-64.9-37.3-69.3-13.7c8,20.4,11.1,10.5,14.3,18.3c3.2,7.8,6.9,16.2,9,15.3c0,0-6,20.8,7.4,26
			c1.6,1.3,29.2,23.8,40.3-28.8c0,0,7.4,15.5,10.2,12.3L164.6,358z"/>
		<path class="st2" d="M179.9,342.5c-0.4,1.7,1.1,0.6,2.1,0.4s16.4-4,16.2-4.5c-0.2-0.6-2.9-3.8-4-3.8S180.6,339.5,179.9,342.5z"/>
		<path class="st2" d="M184.3,343.6c-0.3,3.8,12.1,1,20.7,0.7c0,0-0.2-5.2-2.5-5.1C200.4,339.4,185.2,343.2,184.3,343.6z"/>
		<path class="st2" d="M189.3,346.9c0,0,5.6,2.6,7.8,3.1c1.9-0.8,8.7,0.9,10.6,2.5c2-1.4,1.9-6.1,0.8-6.3
			C207.4,346,195.6,345.4,189.3,346.9z"/>
		<path class="st2" d="M195.3,353.1c-0.2,0.3,8.8,4.3,10.6,6.1c3.5-0.6,3-5.7,2-5.9C206.9,353.1,198.2,349.6,195.3,353.1z"/>
		<path class="st2" d="M186.5,354.9c2.6,1.5,5.2,2.7,8,3.8c3.5,2.9,5.2,7.2,7,6.7c1.8-0.6,4.5-4.4,4.1-4.9
			C205.3,360,193.1,350.7,186.5,354.9z"/>
		<path class="st2" d="M168.5,352.6c-1.3,0.6,27.5,19.1,28.3,18.1c0.8-1,3-4.9,2.3-5.6C198.6,364.5,175.3,349.7,168.5,352.6z"/>
		<path class="st2" d="M166.3,354.6c7,11.6,24,19.1,23.3,20.7C188.2,373.2,160,360.8,166.3,354.6z"/>
		<path class="st2" d="M167.8,354.7c0,0,27.3,16.3,27.4,17c0.2,0.6-3.2,3.8-4.4,3.2S167.5,359.4,167.8,354.7z"/>
		<path class="st2" d="M167.6,349.5c-1.8,1,22.7,4.7,26.9,1.6c-3.2-5.1-8.6-3.4-10.7-4.5S183.4,341.1,167.6,349.5z"/>
		<path class="st2" d="M167.9,346.9c0.4-3.4-1.6-6.8,13.2-10.2c-1.6,2.3-1,1.6-1.4,2.9C179.3,341,176.6,344.2,167.9,346.9z"/>
		<path class="st2" d="M163.7,348.1c1.2,0.5-1.2-3.3-0.3-3.5s0.7,2.4,2,1.8s2.6-6.5,4.3-7.2C167,339.6,155.7,344.5,163.7,348.1z"/>
		<path class="st2" d="M161.2,343.5c0,0,10.5-25.8,13.1-22.5c1.4,0.5,2.4-2.9,4.6-1.7s4-3.7,3.6-0.6
			C182.1,321.8,175.1,333.4,161.2,343.5z"/>
		<path class="st2" d="M181.2,323.7c1.5-6.2,7.3-10.4,13.7-10c-0.7,1.1,2.1,0.7,2.3,1.6c0.2,0.9-2.2,2.9-2,3.9
			C195.4,320.2,181.2,323.7,181.2,323.7z"/>
		<path class="st2" d="M175.7,331.4c0,0,3.8-6,5.5-6.4c1.2-0.3,12-5.4,16.4-4.3c2,0.5,2,4.3,0.2,7
			C197.7,327.7,176.1,332.3,175.7,331.4z"/>
		<path class="st2" d="M168.7,338.2c0,0,5.8-5.2,7.8-5.6c1.5-0.3,16.4-3.1,22.5-3.7c2,0.4,2.5,2,1.8,3.8
			C197.3,330.5,177.5,334,168.7,338.2z"/>
		<line class="st3" x1="153.9" y1="344.5" x2="152.7" y2="338.2"/>
		<circle class="st1" cx="152.6" cy="337.8" r="1"/>
		<path class="st2" d="M133.4,355.4c1.2,1.3-0.6,1.1-1.6,1.5c-1,0.4-16.1,5.1-16.2,4.5c-0.2-0.6,0.5-4.8,1.5-5.3
			S131.3,353.2,133.4,355.4z"/>
		<path class="st2" d="M130.2,358.7c2.2,3.1-9.9,7.1-17.4,11.3c0,0-2.5-4.6-0.5-5.6C114.2,363.4,129.3,358.8,130.2,358.7z"/>
		<path class="st2" d="M127.6,364c0,0-3.5,5.1-5.1,6.7c-2.1,0.4-6.9,5.3-7.8,7.6c-2.4-0.2-4.7-4.2-3.9-4.9
			C111.6,372.7,121.5,366.1,127.6,364z"/>
		<path class="st2" d="M125.7,372.5c0.4,0.1-5.4,8.2-5.9,10.7c-3.3,1.3-5.5-3.3-4.8-4S121.4,371,125.7,372.5z"/>
		<path class="st2" d="M134.2,369.4c-1.4,2.6-3.1,5-4.9,7.3c-1.5,4.2-0.7,8.9-2.6,9.4c-1.9,0.5-6.1-1.5-6-2S126.3,369.3,134.2,369.4
			z"/>
		<path class="st2" d="M148.4,358.3c1.5-0.2-13.7,30.6-14.9,30.1c-1.2-0.5-5.1-2.7-4.9-3.6C128.8,383.9,141.1,359.2,148.4,358.3z"/>
		<path class="st2" d="M151.3,358.8c0,13.6-10.7,28.7-9.2,29.7C142.2,386,159.8,360.8,151.3,358.8z"/>
		<path class="st2" d="M150,359.7c0,0-14.9,28.1-14.7,28.7c0.2,0.6,4.7,1.6,5.4,0.5C141.4,387.7,152.8,363.5,150,359.7z"/>
		<path class="st2" d="M147.6,355c2-0.1-17,15.7-22.2,15.3c0.2-6,5.6-7.4,6.8-9.3C133.4,359.1,129.6,356,147.6,355z"/>
		<path class="st2" d="M146,353c-2.1-2.7-2.2-6.7-16.6-1.9c2.5,1.1,1.7,0.9,2.7,1.8C133.1,353.8,137.1,355.2,146,353z"/>
		<path class="st2" d="M150.1,351.8c-0.7,1-0.6-3.4-1.6-3.1c-1,0.3,0.7,2.4-0.7,2.6c-1.4,0.2-5.6-4.3-7.4-4
			C142.9,346.2,155.1,344.6,150.1,351.8z"/>
		<path class="st2" d="M150,346.6c0,0-22.3-16.6-22.9-12.5c-1,1.1-3.5-1.2-4.8,0.9c-1.2,2.1-5.3-1.1-3.4,1.4
			C120.9,338.8,132.8,345.2,150,346.6z"/>
		<path class="st2" d="M122.6,340c-4.5-4.5-11.6-5.2-16.9-1.5c1.2,0.6-1.5,1.7-1.2,2.6c0.3,0.9,3.4,1.4,3.8,2.3S122.6,340,122.6,340
			z"/>
		<path class="st2" d="M131.3,343.8c0,0-6.3-3.2-8-2.6c-1.2,0.3-13.1,1.6-16.2,4.7c-1.4,1.4,0.6,4.7,3.5,6.1
			C110.5,352,131.4,344.8,131.3,343.8z"/>
		<path class="st2" d="M140.8,346c0,0-7.7-1.4-9.5-0.7c-1.4,0.5-15.7,5.8-21.2,8.5c-1.5,1.4-1.2,3,0.4,4.2
			C112.3,354.1,131.1,346.9,140.8,346z"/>
		<line class="st3" x1="155.9" y1="343.9" x2="155.6" y2="337.5"/>
		<circle class="st1" cx="155.7" cy="337.1" r="1"/>
		<path class="st1" d="M160.3,72.3c36.6,39.3,48.7,5.8,49.4,3.8c8.8-11.4-7.1-26.1-7.1-26.1c2.3-0.4,1.1-9.4-0.2-17.8
			c-1.3-8.4,6.4-1.5,2.7-23.1c-15.9-18-49.6,42.6-52.2,47.5l-0.3,0.1c-0.6,0-1.3,0.1-1.8,0.3c-0.6,0.1-1.2,0.3-1.7,0.7l-0.3,0.1
			c-4.8-2.8-64.9-37.3-69.3-13.7c8,20.4,11.1,10.5,14.3,18.3s6.9,16.2,9,15.3c0,0-6,20.8,7.4,26c1.6,1.3,29.2,23.8,40.3-28.8
			c0,0,7.4,15.5,10.2,12.3L160.3,72.3z"/>
		<path class="st2" d="M175.6,56.8c-0.4,1.7,1.1,0.6,2.1,0.4s16.4-4,16.2-4.5c-0.2-0.6-2.9-3.8-4-3.8S176.3,53.7,175.6,56.8z"/>
		<path class="st2" d="M180,57.9c-0.3,3.8,12.1,1,20.7,0.7c0,0-0.2-5.2-2.5-5.1C196.1,53.7,180.9,57.5,180,57.9z"/>
		<path class="st2" d="M185,61.1c0,0,5.6,2.5,7.8,3.1c1.9-0.8,8.7,0.9,10.6,2.5c2-1.4,1.9-6.1,0.8-6.3
			C203.1,60.3,191.3,59.7,185,61.1z"/>
		<path class="st2" d="M191.1,67.4c-0.2,0.3,8.8,4.3,10.6,6.1c3.5-0.6,3-5.7,2-5.9S193.9,63.8,191.1,67.4z"/>
		<path class="st2" d="M182.2,69.1c2.6,1.5,5.2,2.7,8,3.8c3.5,2.9,5.2,7.2,7,6.7s4.5-4.4,4.1-4.9C201,74.3,188.8,65,182.2,69.1z"/>
		<path class="st2" d="M164.2,66.9c-1.3,0.6,27.5,19.1,28.3,18.1c0.8-1,2.9-5,2.3-5.6S171,64,164.2,66.9z"/>
		<path class="st2" d="M162,68.9c7,11.6,24,19.1,23.3,20.7C183.9,87.4,155.7,75,162,68.9z"/>
		<path class="st2" d="M163.5,69c0,0,27.2,16.3,27.4,17c0.2,0.7-3.2,3.8-4.4,3.2C185.4,88.5,163.1,73.6,163.5,69z"/>
		<path class="st2" d="M163.3,63.7c-1.8,1,22.7,4.7,26.9,1.6c-3.2-5.1-8.6-3.4-10.7-4.5C177.5,59.9,179.1,55.4,163.3,63.7z"/>
		<path class="st2" d="M163.6,61.2c0.4-3.4-1.6-6.8,13.2-10.2c-1.6,2.3-1,1.6-1.4,2.9S172.3,58.4,163.6,61.2z"/>
		<path class="st2" d="M159.4,62.3c1.2,0.5-1.2-3.3-0.3-3.5c1-0.2,0.6,2.4,2,1.8c1.3-0.6,2.6-6.5,4.3-7.2
			C162.7,53.8,151.4,58.7,159.4,62.3z"/>
		<path class="st2" d="M156.8,57.8c0,0,10.5-25.8,13.1-22.5c1.4,0.5,2.4-2.9,4.6-1.7c2.1,1.1,4-3.7,3.6-0.6
			C177.7,36.1,170.8,47.7,156.8,57.8z"/>
		<path class="st2" d="M176.9,37.9c1.5-6.2,7.3-10.4,13.7-10c-0.7,1.1,2.1,0.7,2.3,1.6s-2.2,2.9-2,3.9S176.9,37.9,176.9,37.9z"/>
		<path class="st2" d="M171.4,45.7c0,0,3.8-6,5.5-6.4c1.2-0.3,12-5.4,16.4-4.3c2,0.5,2,4.3,0.2,7C193.3,42,171.8,46.6,171.4,45.7z"
			/>
		<path class="st2" d="M164.4,52.5c0,0,5.8-5.2,7.8-5.6c1.5-0.3,16.4-3.1,22.5-3.7c2,0.4,2.5,2,1.8,3.8
			C192.9,44.7,173.1,48.3,164.4,52.5z"/>
		<line class="st3" x1="149.6" y1="58.8" x2="148.4" y2="52.5"/>
		<circle class="st1" cx="148.2" cy="52" r="1"/>
		<path class="st2" d="M129.1,69.7c1.2,1.3-0.6,1.1-1.6,1.5c-1,0.4-16.1,5.1-16.2,4.5c-0.2-0.6,0.5-4.8,1.5-5.3
			C113.7,69.9,126.9,67.5,129.1,69.7z"/>
		<path class="st2" d="M125.9,73c2.2,3.1-9.9,7.1-17.4,11.3c0,0-2.5-4.6-0.5-5.6S124.9,73.1,125.9,73z"/>
		<path class="st2" d="M123.3,78.3c0,0-3.5,5.1-5.1,6.7c-2.1,0.4-6.9,5.3-7.8,7.6c-2.4-0.2-4.7-4.2-3.9-4.9
			C107.3,86.9,117.2,80.3,123.3,78.3z"/>
		<path class="st2" d="M121.3,86.8c0.4,0.1-5.3,8.2-5.9,10.7c-3.3,1.3-5.5-3.3-4.8-4C111.4,92.8,117,85.2,121.3,86.8z"/>
		<path class="st2" d="M129.8,83.7c-1.4,2.6-3,5-4.8,7.3c-1.5,4.2-0.7,8.9-2.6,9.4s-6.1-1.5-6.1-2C116.4,97.8,122,83.6,129.8,83.7z"
			/>
		<path class="st2" d="M144.1,72.5c1.5-0.2-13.7,30.6-14.9,30.1c-1.2-0.5-5.1-2.7-4.9-3.6C124.5,98.2,136.7,73.5,144.1,72.5z"/>
		<path class="st2" d="M147,73c0,13.6-10.7,28.7-9.2,29.7C137.8,100.2,155.5,75.1,147,73z"/>
		<path class="st2" d="M145.7,73.9c0,0-14.9,28.1-14.7,28.7c0.2,0.6,4.7,1.6,5.4,0.5C137.1,102,148.4,77.7,145.7,73.9z"/>
		<path class="st2" d="M143.2,69.3c2-0.1-17,15.7-22.2,15.3c0.2-6,5.6-7.4,6.8-9.3C129,73.4,125.3,70.4,143.2,69.3z"/>
		<path class="st2" d="M141.7,67.3c-2.1-2.7-2.2-6.7-16.6-1.9c2.5,1.1,1.7,0.9,2.7,1.8C128.8,68.1,132.8,69.4,141.7,67.3z"/>
		<path class="st2" d="M145.8,66.1c-0.7,1-0.6-3.4-1.6-3.1c-1,0.3,0.7,2.4-0.7,2.6c-1.4,0.2-5.6-4.3-7.4-4
			C138.6,60.5,150.8,58.9,145.8,66.1z"/>
		<path class="st2" d="M145.7,60.9c0,0-22.3-16.6-22.8-12.5c-1,1.1-3.5-1.2-4.8,0.9c-1.3,2.1-5.3-1.1-3.4,1.4S128.5,59.5,145.7,60.9
			z"/>
		<path class="st2" d="M118.3,54.2c-4.5-4.5-11.6-5.2-16.9-1.5c1.2,0.6-1.5,1.7-1.2,2.6c0.3,0.9,3.4,1.4,3.8,2.3
			C104.3,58.6,118.3,54.2,118.3,54.2z"/>
		<path class="st2" d="M127,58.1c0,0-6.3-3.2-8-2.6c-1.2,0.3-13.1,1.6-16.2,4.7c-1.4,1.4,0.6,4.7,3.5,6.1
			C106.2,66.2,127.1,59.1,127,58.1z"/>
		<path class="st2" d="M136.5,60.3c0,0-7.7-1.4-9.5-0.7c-1.4,0.5-15.7,5.8-21.2,8.5c-1.5,1.4-1.2,3,0.4,4.2
			C108,68.4,126.8,61.2,136.5,60.3z"/>
		<line class="st3" x1="151.6" y1="58.2" x2="151.3" y2="51.8"/>
		<circle class="st1" cx="151.4" cy="51.3" r="1"/>
	</g>
</g>
</svg>
