<svg xmlns="http://www.w3.org/2000/svg" viewBox="0 0 927.94 508.96"><defs><style>.cls-1{fill:#89876e;stroke-width:2.69px;}.cls-1,.cls-10,.cls-12,.cls-2,.cls-3,.cls-4,.cls-5,.cls-6,.cls-7,.cls-8,.cls-9{stroke:#af1b5e;}.cls-1,.cls-10,.cls-11,.cls-12,.cls-13,.cls-2,.cls-3,.cls-4,.cls-5,.cls-6,.cls-7,.cls-8,.cls-9{stroke-miterlimit:10;}.cls-2,.cls-3,.cls-5,.cls-6,.cls-8,.cls-9{fill:#f9e4af;}.cls-2,.cls-4{stroke-width:1.19px;}.cls-3{stroke-width:1.37px;}.cls-10,.cls-4,.cls-7{fill:#baa26c;}.cls-5,.cls-7{stroke-width:0.97px;}.cls-6{stroke-width:1.11px;}.cls-10,.cls-8{stroke-width:0.62px;}.cls-9{stroke-width:0.72px;}.cls-11{fill:#00ce05;}.cls-11,.cls-13{stroke:#fff;}.cls-11,.cls-12,.cls-13{stroke-width:0.07px;}.cls-12{fill:#fff;}.cls-13{fill:red;}</style></defs><title>ofrenda</title><g id="Layer_2" data-name="Layer 2"><g id="ofrenda"><polygon class="cls-1" points="864.04 417.01 925.38 505.23 2.58 507.61 63.91 419.39 864.04 417.01"/><rect class="cls-2" x="190.1" y="248.05" width="539.86" height="153.75"/><rect class="cls-3" x="150.24" y="274.75" width="619.57" height="176.45"/><polygon class="cls-4" points="729.95 248.05 769.81 274.75 150.24 274.75 190.1 248.05 729.95 248.05"/><rect class="cls-5" x="241.24" y="98.59" width="437.57" height="124.62"/><rect class="cls-6" x="208.94" y="120.24" width="502.17" height="143.02"/><polygon class="cls-7" points="678.81 98.59 711.11 120.24 208.94 120.24 241.24 98.59 678.81 98.59"/><rect class="cls-8" x="318.58" y="0.31" width="282.9" height="80.57"/><rect class="cls-9" x="297.69" y="14.3" width="324.67" height="92.46"/><polygon class="cls-10" points="601.47 0.31 622.36 14.3 297.69 14.3 318.58 0.31 601.47 0.31"/><path class="cls-11" d="M148.49,277.06v53.58a13.77,13.77,0,0,0,13.77,13.77h53.57V290.84a13.77,13.77,0,0,0-13.77-13.78Zm12.14,63.62h-6.09l-3-5.28,3-5.27h6.09l3.05,5.27Zm0-12.33h-6.09l-3-5.28,3-5.28h6.09l3.05,5.28Zm0-12.34h-6.09l-3-5.27,3-5.28h6.09l3.05,5.28Zm0-12.33h-6.09l-3-5.28,3-5.27h6.09l3.05,5.27Zm0-12.33h-6.09l-3-5.28,3-5.28h6.09l3.05,5.28Zm17.23,49.33h-6.1l-3-5.28,3-5.27h6.1l3,5.27Zm0-12.33h-6.1l-3-5.28,3-5.28h6.1l3,5.28Zm0-12.34h-6.1l-3-5.27,3-5.28h6.1l3,5.28Zm0-12.33h-6.1l-3-5.28,3-5.27h6.1l3,5.27Zm0-12.33h-6.1l-3-5.28,3-5.28h6.1l3,5.28Zm14.7,49.33h-6.1l-3-5.28,3-5.27h6.1l3,5.27Zm0-12.33h-6.1l-3-5.28,3-5.28h6.1l3,5.28Zm0-12.34h-6.1l-3-5.27,3-5.28h6.1l3,5.28Zm0-12.33h-6.1l-3-5.28,3-5.27h6.1l3,5.27Zm0-12.33h-6.1l-3-5.28,3-5.28h6.1l3,5.28Zm17.22,49.33h-6.09l-3.05-5.28,3.05-5.27h6.09l3.05,5.27Zm0-12.33h-6.09l-3.05-5.28,3.05-5.28h6.09l3.05,5.28Zm0-12.34h-6.09l-3.05-5.27,3.05-5.28h6.09l3.05,5.28Zm0-12.33h-6.09l-3.05-5.28,3.05-5.27h6.09l3.05,5.27Zm0-12.33h-6.09l-3.05-5.28,3.05-5.28h6.09l3.05,5.28Z"/><path class="cls-12" d="M227.62,277.06v53.58a13.78,13.78,0,0,0,13.78,13.77H295V290.84a13.77,13.77,0,0,0-13.77-13.78Zm12.15,63.62h-6.09l-3.05-5.28,3.05-5.27h6.09l3,5.27Zm0-12.33h-6.09l-3.05-5.28,3.05-5.28h6.09l3,5.28Zm0-12.34h-6.09l-3.05-5.27,3.05-5.28h6.09l3,5.28Zm0-12.33h-6.09l-3.05-5.28,3.05-5.27h6.09l3,5.27Zm0-12.33h-6.09l-3.05-5.28,3.05-5.28h6.09l3,5.28ZM257,340.68h-6.1l-3-5.28,3-5.27H257l3,5.27Zm0-12.33h-6.1l-3-5.28,3-5.28H257l3,5.28ZM257,316h-6.1l-3-5.27,3-5.28H257l3,5.28Zm0-12.33h-6.1l-3-5.28,3-5.27H257l3,5.27Zm0-12.33h-6.1l-3-5.28,3-5.28H257l3,5.28Zm14.7,49.33h-6.1l-3-5.28,3-5.27h6.1l3,5.27Zm0-12.33h-6.1l-3-5.28,3-5.28h6.1l3,5.28Zm0-12.34h-6.1l-3-5.27,3-5.28h6.1l3,5.28Zm0-12.33h-6.1l-3-5.28,3-5.27h6.1l3,5.27Zm0-12.33h-6.1l-3-5.28,3-5.28h6.1l3,5.28Zm17.22,49.33h-6.09l-3.05-5.28,3.05-5.27h6.09L292,335.4Zm0-12.33h-6.09l-3.05-5.28,3.05-5.28h6.09l3.05,5.28Zm0-12.34h-6.09l-3.05-5.27,3.05-5.28h6.09l3.05,5.28Zm0-12.33h-6.09l-3.05-5.28,3.05-5.27h6.09L292,298.4Zm0-12.33h-6.09l-3.05-5.28,3.05-5.28h6.09l3.05,5.28Z"/><path class="cls-13" d="M306.76,277.06v53.58a13.78,13.78,0,0,0,13.78,13.77h53.57V290.84a13.78,13.78,0,0,0-13.77-13.78Zm12.15,63.62h-6.1l-3-5.28,3-5.27h6.1l3,5.27Zm0-12.33h-6.1l-3-5.28,3-5.28h6.1l3,5.28Zm0-12.34h-6.1l-3-5.27,3-5.28h6.1l3,5.28Zm0-12.33h-6.1l-3-5.28,3-5.27h6.1l3,5.27Zm0-12.33h-6.1l-3-5.28,3-5.28h6.1l3,5.28Zm17.22,49.33H330l-3-5.28,3-5.27h6.09l3.05,5.27Zm0-12.33H330l-3-5.28,3-5.28h6.09l3.05,5.28Zm0-12.34H330l-3-5.27,3-5.28h6.09l3.05,5.28Zm0-12.33H330l-3-5.28,3-5.27h6.09l3.05,5.27Zm0-12.33H330l-3-5.28,3-5.28h6.09l3.05,5.28Zm14.7,49.33h-6.09l-3-5.28,3-5.27h6.09l3.05,5.27Zm0-12.33h-6.09l-3-5.28,3-5.28h6.09l3.05,5.28Zm0-12.34h-6.09l-3-5.27,3-5.28h6.09l3.05,5.28Zm0-12.33h-6.09l-3-5.28,3-5.27h6.09l3.05,5.27Zm0-12.33h-6.09l-3-5.28,3-5.28h6.09l3.05,5.28Zm17.23,49.33H362l-3.05-5.28,3.05-5.27h6.09l3.05,5.27Zm0-12.33H362l-3.05-5.28,3.05-5.28h6.09l3.05,5.28Zm0-12.34H362l-3.05-5.27,3.05-5.28h6.09l3.05,5.28Zm0-12.33H362l-3.05-5.28,3.05-5.27h6.09l3.05,5.27Zm0-12.33H362l-3.05-5.28,3.05-5.28h6.09l3.05,5.28Z"/><path class="cls-11" d="M385.9,277.06v53.58a13.78,13.78,0,0,0,13.78,13.77h53.57V290.84a13.78,13.78,0,0,0-13.77-13.78Zm12.15,63.62H392l-3-5.28,3-5.27h6.1l3,5.27Zm0-12.33H392l-3-5.28,3-5.28h6.1l3,5.28Zm0-12.34H392l-3-5.27,3-5.28h6.1l3,5.28Zm0-12.33H392l-3-5.28,3-5.27h6.1l3,5.27Zm0-12.33H392l-3-5.28,3-5.28h6.1l3,5.28Zm17.22,49.33h-6.09l-3.05-5.28,3.05-5.27h6.09l3.05,5.27Zm0-12.33h-6.09l-3.05-5.28,3.05-5.28h6.09l3.05,5.28Zm0-12.34h-6.09l-3.05-5.27,3.05-5.28h6.09l3.05,5.28Zm0-12.33h-6.09l-3.05-5.28,3.05-5.27h6.09l3.05,5.27Zm0-12.33h-6.09l-3.05-5.28,3.05-5.28h6.09l3.05,5.28ZM430,340.68h-6.09l-3.05-5.28,3.05-5.27H430l3,5.27Zm0-12.33h-6.09l-3.05-5.28,3.05-5.28H430l3,5.28ZM430,316h-6.09l-3.05-5.27,3.05-5.28H430l3,5.28Zm0-12.33h-6.09l-3.05-5.28,3.05-5.27H430l3,5.27Zm0-12.33h-6.09l-3.05-5.28,3.05-5.28H430l3,5.28Zm17.23,49.33h-6.09l-3.05-5.28,3.05-5.27h6.09l3.05,5.27Zm0-12.33h-6.09l-3.05-5.28,3.05-5.28h6.09l3.05,5.28Zm0-12.34h-6.09l-3.05-5.27,3.05-5.28h6.09l3.05,5.28Zm0-12.33h-6.09l-3.05-5.28,3.05-5.27h6.09l3.05,5.27Zm0-12.33h-6.09l-3.05-5.28,3.05-5.28h6.09l3.05,5.28Z"/><path class="cls-12" d="M465,277.06v53.58a13.78,13.78,0,0,0,13.78,13.77h53.57V290.84a13.78,13.78,0,0,0-13.77-13.78Zm12.15,63.62h-6.1l-3-5.28,3-5.27h6.1l3,5.27Zm0-12.33h-6.1l-3-5.28,3-5.28h6.1l3,5.28Zm0-12.34h-6.1l-3-5.27,3-5.28h6.1l3,5.28Zm0-12.33h-6.1l-3-5.28,3-5.27h6.1l3,5.27Zm0-12.33h-6.1l-3-5.28,3-5.28h6.1l3,5.28Zm17.22,49.33h-6.09l-3.05-5.28,3.05-5.27h6.09l3,5.27Zm0-12.33h-6.09l-3.05-5.28,3.05-5.28h6.09l3,5.28Zm0-12.34h-6.09l-3.05-5.27,3.05-5.28h6.09l3,5.28Zm0-12.33h-6.09l-3.05-5.28,3.05-5.27h6.09l3,5.27Zm0-12.33h-6.09l-3.05-5.28,3.05-5.28h6.09l3,5.28Zm14.7,49.33H503l-3-5.28,3-5.27h6.09l3,5.27Zm0-12.33H503l-3-5.28,3-5.28h6.09l3,5.28Zm0-12.34H503l-3-5.27,3-5.28h6.09l3,5.28Zm0-12.33H503l-3-5.28,3-5.27h6.09l3,5.27Zm0-12.33H503l-3-5.28,3-5.28h6.09l3,5.28Zm17.23,49.33h-6.09l-3-5.28,3-5.27h6.09l3,5.27Zm0-12.33h-6.09l-3-5.28,3-5.28h6.09l3,5.28Zm0-12.34h-6.09l-3-5.27,3-5.28h6.09l3,5.28Zm0-12.33h-6.09l-3-5.28,3-5.27h6.09l3,5.27Zm0-12.33h-6.09l-3-5.28,3-5.28h6.09l3,5.28Z"/><path class="cls-13" d="M544.18,277.06v53.58A13.78,13.78,0,0,0,558,344.41h53.57V290.84a13.78,13.78,0,0,0-13.78-13.78Zm12.14,63.62h-6.09l-3-5.28,3-5.27h6.09l3,5.27Zm0-12.33h-6.09l-3-5.28,3-5.28h6.09l3,5.28Zm0-12.34h-6.09l-3-5.27,3-5.28h6.09l3,5.28Zm0-12.33h-6.09l-3-5.28,3-5.27h6.09l3,5.27Zm0-12.33h-6.09l-3-5.28,3-5.28h6.09l3,5.28Zm17.23,49.33h-6.09l-3.05-5.28,3.05-5.27h6.09l3.05,5.27Zm0-12.33h-6.09l-3.05-5.28,3.05-5.28h6.09l3.05,5.28Zm0-12.34h-6.09l-3.05-5.27,3.05-5.28h6.09l3.05,5.28Zm0-12.33h-6.09l-3.05-5.28,3.05-5.27h6.09l3.05,5.27Zm0-12.33h-6.09l-3.05-5.28,3.05-5.28h6.09l3.05,5.28Zm14.7,49.33h-6.09l-3-5.28,3-5.27h6.09l3,5.27Zm0-12.33h-6.09l-3-5.28,3-5.28h6.09l3,5.28Zm0-12.34h-6.09l-3-5.27,3-5.28h6.09l3,5.28Zm0-12.33h-6.09l-3-5.28,3-5.27h6.09l3,5.27Zm0-12.33h-6.09l-3-5.28,3-5.28h6.09l3,5.28Zm17.23,49.33h-6.09l-3-5.28,3-5.27h6.09l3,5.27Zm0-12.33h-6.09l-3-5.28,3-5.28h6.09l3,5.28Zm0-12.34h-6.09l-3-5.27,3-5.28h6.09l3,5.28Zm0-12.33h-6.09l-3-5.28,3-5.27h6.09l3,5.27Zm0-12.33h-6.09l-3-5.28,3-5.28h6.09l3,5.28Z"/><path class="cls-11" d="M623.32,277.06v53.58a13.78,13.78,0,0,0,13.77,13.77h53.58V290.84a13.78,13.78,0,0,0-13.78-13.78Zm12.14,63.62h-6.09l-3-5.28,3-5.27h6.09l3,5.27Zm0-12.33h-6.09l-3-5.28,3-5.28h6.09l3,5.28Zm0-12.34h-6.09l-3-5.27,3-5.28h6.09l3,5.28Zm0-12.33h-6.09l-3-5.28,3-5.27h6.09l3,5.27Zm0-12.33h-6.09l-3-5.28,3-5.28h6.09l3,5.28Zm17.23,49.33H646.6l-3.05-5.28,3.05-5.27h6.09l3,5.27Zm0-12.33H646.6l-3.05-5.28,3.05-5.28h6.09l3,5.28Zm0-12.34H646.6l-3.05-5.27,3.05-5.28h6.09l3,5.28Zm0-12.33H646.6l-3.05-5.28,3.05-5.27h6.09l3,5.27Zm0-12.33H646.6l-3.05-5.28,3.05-5.28h6.09l3,5.28Zm14.7,49.33H661.3l-3-5.28,3-5.27h6.09l3.05,5.27Zm0-12.33H661.3l-3-5.28,3-5.28h6.09l3.05,5.28Zm0-12.34H661.3l-3-5.27,3-5.28h6.09l3.05,5.28Zm0-12.33H661.3l-3-5.28,3-5.27h6.09l3.05,5.27Zm0-12.33H661.3l-3-5.28,3-5.28h6.09l3.05,5.28Zm17.23,49.33h-6.09l-3-5.28,3-5.27h6.09l3,5.27Zm0-12.33h-6.09l-3-5.28,3-5.28h6.09l3,5.28Zm0-12.34h-6.09l-3-5.27,3-5.28h6.09l3,5.28Zm0-12.33h-6.09l-3-5.28,3-5.27h6.09l3,5.27Zm0-12.33h-6.09l-3-5.28,3-5.28h6.09l3,5.28Z"/><path class="cls-12" d="M702.46,277.06v53.58a13.78,13.78,0,0,0,13.77,13.77h53.58V290.84A13.78,13.78,0,0,0,756,277.06Zm12.14,63.62h-6.09l-3-5.28,3-5.27h6.09l3,5.27Zm0-12.33h-6.09l-3-5.28,3-5.28h6.09l3,5.28Zm0-12.34h-6.09l-3-5.27,3-5.28h6.09l3,5.28Zm0-12.33h-6.09l-3-5.28,3-5.27h6.09l3,5.27Zm0-12.33h-6.09l-3-5.28,3-5.28h6.09l3,5.28Zm17.23,49.33h-6.09l-3-5.28,3-5.27h6.09l3,5.27Zm0-12.33h-6.09l-3-5.28,3-5.28h6.09l3,5.28Zm0-12.34h-6.09l-3-5.27,3-5.28h6.09l3,5.28Zm0-12.33h-6.09l-3-5.28,3-5.27h6.09l3,5.27Zm0-12.33h-6.09l-3-5.28,3-5.28h6.09l3,5.28Zm14.7,49.33h-6.09l-3.05-5.28,3.05-5.27h6.09l3.05,5.27Zm0-12.33h-6.09l-3.05-5.28,3.05-5.28h6.09l3.05,5.28Zm0-12.34h-6.09l-3.05-5.27,3.05-5.28h6.09l3.05,5.28Zm0-12.33h-6.09l-3.05-5.28,3.05-5.27h6.09l3.05,5.27Zm0-12.33h-6.09l-3.05-5.28,3.05-5.28h6.09l3.05,5.28Zm17.23,49.33h-6.1l-3-5.28,3-5.27h6.1l3,5.27Zm0-12.33h-6.1l-3-5.28,3-5.28h6.1l3,5.28Zm0-12.34h-6.1l-3-5.27,3-5.28h6.1l3,5.28Zm0-12.33h-6.1l-3-5.28,3-5.27h6.1l3,5.27Zm0-12.33h-6.1l-3-5.28,3-5.28h6.1l3,5.28Z"/><path class="cls-12" d="M637.09,121.24A13.77,13.77,0,0,0,623.32,135v53.57h53.57a13.77,13.77,0,0,0,13.78-13.77V121.24Zm38.39,58.34,3-5.28h6.09l3,5.28-3,5.27h-6.09Zm0-12.34,3-5.27h6.09l3,5.27-3,5.28h-6.09Zm0-12.33,3-5.28h6.09l3,5.28-3,5.28h-6.09Zm0-12.33,3-5.28h6.09l3,5.28-3,5.27h-6.09Zm0-12.33,3-5.28h6.09l3,5.28-3,5.27h-6.09Zm-17.23,49.33,3-5.28h6.09l3.05,5.28-3.05,5.27H661.3Zm0-12.34,3-5.27h6.09l3.05,5.27-3.05,5.28H661.3Zm0-12.33,3-5.28h6.09l3.05,5.28-3.05,5.28H661.3Zm0-12.33,3-5.28h6.09l3.05,5.28-3.05,5.27H661.3Zm0-12.33,3-5.28h6.09l3.05,5.28-3.05,5.27H661.3Zm-14.7,49.33,3.05-5.28h6.09l3,5.28-3,5.27H646.6Zm0-12.34L646.6,162h6.09l3,5.27-3,5.28H646.6Zm0-12.33,3.05-5.28h6.09l3,5.28-3,5.28H646.6Zm0-12.33,3.05-5.28h6.09l3,5.28-3,5.27H646.6Zm0-12.33L646.6,125h6.09l3,5.28-3,5.27H646.6Zm-17.23,49.33,3-5.28h6.09l3,5.28-3,5.27h-6.09Zm0-12.34,3-5.27h6.09l3,5.27-3,5.28h-6.09Zm0-12.33,3-5.28h6.09l3,5.28-3,5.28h-6.09Zm0-12.33,3-5.28h6.09l3,5.28-3,5.27h-6.09Zm0-12.33,3-5.28h6.09l3,5.28-3,5.27h-6.09Z"/><path class="cls-11" d="M558,121.24A13.77,13.77,0,0,0,544.18,135v53.57h53.57a13.77,13.77,0,0,0,13.78-13.77V121.24Zm38.38,58.34,3-5.28h6.09l3,5.28-3,5.27h-6.09Zm0-12.34,3-5.27h6.09l3,5.27-3,5.28h-6.09Zm0-12.33,3-5.28h6.09l3,5.28-3,5.28h-6.09Zm0-12.33,3-5.28h6.09l3,5.28-3,5.27h-6.09Zm0-12.33,3-5.28h6.09l3,5.28-3,5.27h-6.09Zm-17.23,49.33,3-5.28h6.09l3,5.28-3,5.27h-6.09Zm0-12.34,3-5.27h6.09l3,5.27-3,5.28h-6.09Zm0-12.33,3-5.28h6.09l3,5.28-3,5.28h-6.09Zm0-12.33,3-5.28h6.09l3,5.28-3,5.27h-6.09Zm0-12.33,3-5.28h6.09l3,5.28-3,5.27h-6.09Zm-14.7,49.33,3.05-5.28h6.09l3.05,5.28-3.05,5.27h-6.09Zm0-12.34,3.05-5.27h6.09l3.05,5.27-3.05,5.28h-6.09Zm0-12.33,3.05-5.28h6.09l3.05,5.28-3.05,5.28h-6.09Zm0-12.33,3.05-5.28h6.09l3.05,5.28-3.05,5.27h-6.09Zm0-12.33,3.05-5.28h6.09l3.05,5.28-3.05,5.27h-6.09Zm-17.22,49.33,3-5.28h6.09l3,5.28-3,5.27h-6.09Zm0-12.34,3-5.27h6.09l3,5.27-3,5.28h-6.09Zm0-12.33,3-5.28h6.09l3,5.28-3,5.28h-6.09Zm0-12.33,3-5.28h6.09l3,5.28-3,5.27h-6.09Zm0-12.33,3-5.28h6.09l3,5.28-3,5.27h-6.09Z"/><path class="cls-13" d="M478.82,121.24A13.77,13.77,0,0,0,465,135v53.57h53.58a13.77,13.77,0,0,0,13.77-13.77V121.24Zm38.38,58.34,3-5.28h6.09l3,5.28-3,5.27h-6.09Zm0-12.34,3-5.27h6.09l3,5.27-3,5.28h-6.09Zm0-12.33,3-5.28h6.09l3,5.28-3,5.28h-6.09Zm0-12.33,3-5.28h6.09l3,5.28-3,5.27h-6.09Zm0-12.33,3-5.28h6.09l3,5.28-3,5.27h-6.09ZM500,179.58l3-5.28h6.09l3,5.28-3,5.27H503Zm0-12.34,3-5.27h6.09l3,5.27-3,5.28H503Zm0-12.33,3-5.28h6.09l3,5.28-3,5.28H503Zm0-12.33,3-5.28h6.09l3,5.28-3,5.27H503Zm0-12.33,3-5.28h6.09l3,5.28-3,5.27H503Zm-14.7,49.33,3.05-5.28h6.09l3,5.28-3,5.27h-6.09Zm0-12.34,3.05-5.27h6.09l3,5.27-3,5.28h-6.09Zm0-12.33,3.05-5.28h6.09l3,5.28-3,5.28h-6.09Zm0-12.33,3.05-5.28h6.09l3,5.28-3,5.27h-6.09Zm0-12.33,3.05-5.28h6.09l3,5.28-3,5.27h-6.09Zm-17.22,49.33,3-5.28h6.1l3,5.28-3,5.27h-6.1Zm0-12.34,3-5.27h6.1l3,5.27-3,5.28h-6.1Zm0-12.33,3-5.28h6.1l3,5.28-3,5.28h-6.1Zm0-12.33,3-5.28h6.1l3,5.28-3,5.27h-6.1Zm0-12.33,3-5.28h6.1l3,5.28-3,5.27h-6.1Z"/><path class="cls-12" d="M399.68,121.24A13.77,13.77,0,0,0,385.9,135v53.57h53.58a13.77,13.77,0,0,0,13.77-13.77V121.24Zm38.38,58.34,3.05-5.28h6.09l3.05,5.28-3.05,5.27h-6.09Zm0-12.34,3.05-5.27h6.09l3.05,5.27-3.05,5.28h-6.09Zm0-12.33,3.05-5.28h6.09l3.05,5.28-3.05,5.28h-6.09Zm0-12.33,3.05-5.28h6.09l3.05,5.28-3.05,5.27h-6.09Zm0-12.33,3.05-5.28h6.09l3.05,5.28-3.05,5.27h-6.09Zm-17.23,49.33,3.05-5.28H430l3,5.28-3,5.27h-6.09Zm0-12.34,3.05-5.27H430l3,5.27-3,5.28h-6.09Zm0-12.33,3.05-5.28H430l3,5.28-3,5.28h-6.09Zm0-12.33,3.05-5.28H430l3,5.28-3,5.27h-6.09Zm0-12.33,3.05-5.28H430l3,5.28-3,5.27h-6.09Zm-14.7,49.33,3.05-5.28h6.09l3.05,5.28-3.05,5.27h-6.09Zm0-12.34,3.05-5.27h6.09l3.05,5.27-3.05,5.28h-6.09Zm0-12.33,3.05-5.28h6.09l3.05,5.28-3.05,5.28h-6.09Zm0-12.33,3.05-5.28h6.09l3.05,5.28-3.05,5.27h-6.09Zm0-12.33,3.05-5.28h6.09l3.05,5.28-3.05,5.27h-6.09Zm-17.22,49.33,3-5.28h6.1l3,5.28-3,5.27H392Zm0-12.34,3-5.27h6.1l3,5.27-3,5.28H392Zm0-12.33,3-5.28h6.1l3,5.28-3,5.28H392Zm0-12.33,3-5.28h6.1l3,5.28-3,5.27H392Zm0-12.33,3-5.28h6.1l3,5.28-3,5.27H392Z"/><path class="cls-11" d="M320.54,121.24A13.77,13.77,0,0,0,306.76,135v53.57h53.58a13.77,13.77,0,0,0,13.77-13.77V121.24Zm38.38,58.34L362,174.3h6.09l3.05,5.28-3.05,5.27H362Zm0-12.34L362,162h6.09l3.05,5.27-3.05,5.28H362Zm0-12.33,3.05-5.28h6.09l3.05,5.28-3.05,5.28H362Zm0-12.33L362,137.3h6.09l3.05,5.28-3.05,5.27H362Zm0-12.33L362,125h6.09l3.05,5.28-3.05,5.27H362ZM341.7,179.58l3-5.28h6.09l3.05,5.28-3.05,5.27h-6.09Zm0-12.34,3-5.27h6.09l3.05,5.27-3.05,5.28h-6.09Zm0-12.33,3-5.28h6.09l3.05,5.28-3.05,5.28h-6.09Zm0-12.33,3-5.28h6.09l3.05,5.28-3.05,5.27h-6.09Zm0-12.33,3-5.28h6.09l3.05,5.28-3.05,5.27h-6.09ZM327,179.58l3-5.28h6.09l3.05,5.28-3.05,5.27H330Zm0-12.34,3-5.27h6.09l3.05,5.27-3.05,5.28H330Zm0-12.33,3-5.28h6.09l3.05,5.28-3.05,5.28H330Zm0-12.33,3-5.28h6.09l3.05,5.28-3.05,5.27H330Zm0-12.33,3-5.28h6.09l3.05,5.28-3.05,5.27H330Zm-17.23,49.33,3-5.28h6.1l3,5.28-3,5.27h-6.1Zm0-12.34,3-5.27h6.1l3,5.27-3,5.28h-6.1Zm0-12.33,3-5.28h6.1l3,5.28-3,5.28h-6.1Zm0-12.33,3-5.28h6.1l3,5.28-3,5.27h-6.1Zm0-12.33,3-5.28h6.1l3,5.28-3,5.27h-6.1Z"/><path class="cls-13" d="M241.4,121.24A13.77,13.77,0,0,0,227.62,135v53.57H281.2A13.76,13.76,0,0,0,295,174.81V121.24Zm38.38,58.34,3.05-5.28h6.09l3.05,5.28-3.05,5.27h-6.09Zm0-12.34,3.05-5.27h6.09l3.05,5.27-3.05,5.28h-6.09Zm0-12.33,3.05-5.28h6.09l3.05,5.28-3.05,5.28h-6.09Zm0-12.33,3.05-5.28h6.09l3.05,5.28-3.05,5.27h-6.09Zm0-12.33,3.05-5.28h6.09l3.05,5.28-3.05,5.27h-6.09Zm-17.22,49.33,3-5.28h6.1l3,5.28-3,5.27h-6.1Zm0-12.34,3-5.27h6.1l3,5.27-3,5.28h-6.1Zm0-12.33,3-5.28h6.1l3,5.28-3,5.28h-6.1Zm0-12.33,3-5.28h6.1l3,5.28-3,5.27h-6.1Zm0-12.33,3-5.28h6.1l3,5.28-3,5.27h-6.1Zm-14.7,49.33,3-5.28H257l3,5.28-3,5.27h-6.1Zm0-12.34,3-5.27H257l3,5.27-3,5.28h-6.1Zm0-12.33,3-5.28H257l3,5.28-3,5.28h-6.1Zm0-12.33,3-5.28H257l3,5.28-3,5.27h-6.1Zm0-12.33,3-5.28H257l3,5.28-3,5.27h-6.1Zm-17.23,49.33,3.05-5.28h6.09l3,5.28-3,5.27h-6.09Zm0-12.34,3.05-5.27h6.09l3,5.27-3,5.28h-6.09Zm0-12.33,3.05-5.28h6.09l3,5.28-3,5.28h-6.09Zm0-12.33,3.05-5.28h6.09l3,5.28-3,5.27h-6.09Zm0-12.33,3.05-5.28h6.09l3,5.28-3,5.27h-6.09Z"/><path class="cls-12" d="M306.76,15.3V68.88a13.77,13.77,0,0,0,13.78,13.77h53.57V29.08A13.78,13.78,0,0,0,360.34,15.3Zm12.15,63.62h-6.1l-3-5.28,3-5.27h6.1l3,5.27Zm0-12.33h-6.1l-3-5.28,3-5.28h6.1l3,5.28Zm0-12.34h-6.1l-3-5.27,3-5.28h6.1L322,49Zm0-12.33h-6.1l-3-5.27,3-5.28h6.1l3,5.28Zm0-12.33h-6.1l-3-5.28,3-5.27h6.1l3,5.27Zm17.22,49.33H330l-3-5.28,3-5.27h6.09l3.05,5.27Zm0-12.33H330l-3-5.28L330,56h6.09l3.05,5.28Zm0-12.34H330L327,49l3-5.28h6.09L339.18,49Zm0-12.33H330l-3-5.27,3-5.28h6.09l3.05,5.28Zm0-12.33H330l-3-5.28L330,19h6.09l3.05,5.27Zm14.7,49.33h-6.09l-3-5.28,3-5.27h6.09l3.05,5.27Zm0-12.33h-6.09l-3-5.28,3-5.28h6.09l3.05,5.28Zm0-12.34h-6.09l-3-5.27,3-5.28h6.09L353.88,49Zm0-12.33h-6.09l-3-5.27,3-5.28h6.09l3.05,5.28Zm0-12.33h-6.09l-3-5.28,3-5.27h6.09l3.05,5.27Zm17.23,49.33H362l-3.05-5.28L362,68.37h6.09l3.05,5.27Zm0-12.33H362l-3.05-5.28L362,56h6.09l3.05,5.28Zm0-12.34H362L358.92,49,362,43.7h6.09L371.11,49Zm0-12.33H362l-3.05-5.27L362,31.37h6.09l3.05,5.28Zm0-12.33H362l-3.05-5.28L362,19h6.09l3.05,5.27Z"/><path class="cls-13" d="M385.9,15.3V68.88a13.77,13.77,0,0,0,13.78,13.77h53.57V29.08A13.78,13.78,0,0,0,439.48,15.3Zm12.15,63.62H392l-3-5.28,3-5.27h6.1l3,5.27Zm0-12.33H392l-3-5.28L392,56h6.1l3,5.28Zm0-12.34H392l-3-5.27,3-5.28h6.1l3,5.28Zm0-12.33H392l-3-5.27,3-5.28h6.1l3,5.28Zm0-12.33H392l-3-5.28L392,19h6.1l3,5.27Zm17.22,49.33h-6.09l-3.05-5.28,3.05-5.27h6.09l3.05,5.27Zm0-12.33h-6.09l-3.05-5.28L409.18,56h6.09l3.05,5.28Zm0-12.34h-6.09L406.13,49l3.05-5.28h6.09L418.32,49Zm0-12.33h-6.09l-3.05-5.27,3.05-5.28h6.09l3.05,5.28Zm0-12.33h-6.09l-3.05-5.28L409.18,19h6.09l3.05,5.27ZM430,78.92h-6.09l-3.05-5.28,3.05-5.27H430l3,5.27Zm0-12.33h-6.09l-3.05-5.28L423.88,56H430l3,5.28Zm0-12.34h-6.09L420.83,49l3.05-5.28H430L433,49Zm0-12.33h-6.09l-3.05-5.27,3.05-5.28H430l3,5.28Zm0-12.33h-6.09l-3.05-5.28L423.88,19H430l3,5.27ZM447.2,78.92h-6.09l-3.05-5.28,3.05-5.27h6.09l3.05,5.27Zm0-12.33h-6.09l-3.05-5.28L441.11,56h6.09l3.05,5.28Zm0-12.34h-6.09L438.06,49l3.05-5.28h6.09L450.25,49Zm0-12.33h-6.09l-3.05-5.27,3.05-5.28h6.09l3.05,5.28Zm0-12.33h-6.09l-3.05-5.28L441.11,19h6.09l3.05,5.27Z"/><path class="cls-12" d="M465,15.3V68.88a13.77,13.77,0,0,0,13.78,13.77h53.57V29.08A13.78,13.78,0,0,0,518.62,15.3Zm12.15,63.62h-6.1l-3-5.28,3-5.27h6.1l3,5.27Zm0-12.33h-6.1l-3-5.28,3-5.28h6.1l3,5.28Zm0-12.34h-6.1l-3-5.27,3-5.28h6.1l3,5.28Zm0-12.33h-6.1l-3-5.27,3-5.28h6.1l3,5.28Zm0-12.33h-6.1l-3-5.28,3-5.27h6.1l3,5.27Zm17.22,49.33h-6.09l-3.05-5.28,3.05-5.27h6.09l3,5.27Zm0-12.33h-6.09l-3.05-5.28L488.32,56h6.09l3,5.28Zm0-12.34h-6.09L485.27,49l3.05-5.28h6.09l3,5.28Zm0-12.33h-6.09l-3.05-5.27,3.05-5.28h6.09l3,5.28Zm0-12.33h-6.09l-3.05-5.28L488.32,19h6.09l3,5.27Zm14.7,49.33H503l-3-5.28,3-5.27h6.09l3,5.27Zm0-12.33H503l-3-5.28L503,56h6.09l3,5.28Zm0-12.34H503L500,49l3-5.28h6.09l3,5.28Zm0-12.33H503l-3-5.27,3-5.28h6.09l3,5.28Zm0-12.33H503l-3-5.28L503,19h6.09l3,5.27Zm17.23,49.33h-6.09l-3-5.28,3-5.27h6.09l3,5.27Zm0-12.33h-6.09l-3-5.28,3-5.28h6.09l3,5.28Zm0-12.34h-6.09l-3-5.27,3-5.28h6.09l3,5.28Zm0-12.33h-6.09l-3-5.27,3-5.28h6.09l3,5.28Zm0-12.33h-6.09l-3-5.28,3-5.27h6.09l3,5.27Z"/><path class="cls-11" d="M544.18,15.3V68.88A13.77,13.77,0,0,0,558,82.65h53.57V29.08A13.78,13.78,0,0,0,597.75,15.3Zm12.14,63.62h-6.09l-3-5.28,3-5.27h6.09l3,5.27Zm0-12.33h-6.09l-3-5.28,3-5.28h6.09l3,5.28Zm0-12.34h-6.09l-3-5.27,3-5.28h6.09l3,5.28Zm0-12.33h-6.09l-3-5.27,3-5.28h6.09l3,5.28Zm0-12.33h-6.09l-3-5.28,3-5.27h6.09l3,5.27Zm17.23,49.33h-6.09l-3.05-5.28,3.05-5.27h6.09l3.05,5.27Zm0-12.33h-6.09l-3.05-5.28L567.46,56h6.09l3.05,5.28Zm0-12.34h-6.09L564.41,49l3.05-5.28h6.09L576.6,49Zm0-12.33h-6.09l-3.05-5.27,3.05-5.28h6.09l3.05,5.28Zm0-12.33h-6.09l-3.05-5.28L567.46,19h6.09l3.05,5.27Zm14.7,49.33h-6.09l-3-5.28,3-5.27h6.09l3,5.27Zm0-12.33h-6.09l-3-5.28,3-5.28h6.09l3,5.28Zm0-12.34h-6.09l-3-5.27,3-5.28h6.09l3,5.28Zm0-12.33h-6.09l-3-5.27,3-5.28h6.09l3,5.28Zm0-12.33h-6.09l-3-5.28,3-5.27h6.09l3,5.27Zm17.23,49.33h-6.09l-3-5.28,3-5.27h6.09l3,5.27Zm0-12.33h-6.09l-3-5.28,3-5.28h6.09l3,5.28Zm0-12.34h-6.09l-3-5.27,3-5.28h6.09l3,5.28Zm0-12.33h-6.09l-3-5.27,3-5.28h6.09l3,5.28Zm0-12.33h-6.09l-3-5.28,3-5.27h6.09l3,5.27Z"/></g></g></svg>