<?xml version="1.0" encoding="utf-8"?>
<!-- Generator: Adobe Illustrator 22.0.1, SVG Export Plug-In . SVG Version: 6.00 Build 0)  -->
<svg version="1.1" id="Layer_1" xmlns="http://www.w3.org/2000/svg" xmlns:xlink="http://www.w3.org/1999/xlink" x="0px" y="0px"
	 viewBox="0 0 292.4 98.1" style="enable-background:new 0 0 292.4 98.1;" xml:space="preserve">
<style type="text/css">
	.st0{fill:#A8704B;stroke:#844124;stroke-miterlimit:10;}
	.st1{fill:#EA8C59;stroke:#DD581D;stroke-miterlimit:10;}
</style>
<title>panDeLosMuertos</title>
<g id="Layer_2_3_">
	<g id="panDeLosMuertos_2_">
		<path class="st0" d="M170.1,46.7c0,0-19.5,19.7,1,28.8s138.7,25.8,118.8-20.7C270.1,8.3,182.8,33.3,170.1,46.7z"/>
		<path class="st1" d="M173.8,56.7c10.6-1.2,29.2-26,34.2-22.5s5.8,4,1.3,6.7s-25,16.8-5,25.2s9.8-27.2,22.5-28.8
			c12.7-1.7-1.2-10.2,7.3-8.8s10.7,2.5,10.7,2.5s3.3-1,7.8,7.5c4.5,8.5,14.8,29,23.5,26.8c8.7-2.2,9.3-16.7-4-22.8
			c-13.3-6.2-13.6-4.7-13.3-10.7c0,0,7.5-2.8,16.3,10.3c8.8,13.2,17.4,7.3,7.3-1.5c9.2,13.2,14,8.5,1.2-4.7
			c-12.8-13.2-0.8-5.8-21.2-12.3c-14-4.5-14.1-0.7-20.8-9c-4.9-6-3.2-11.7-16.4-14.5c-25,1.8-11.3,20.2-19,19.3
			c-7.7-0.8-18.5,1.5-20.8,9.2s-18,0.3-18.2,17.5C167,63.2,171.5,56.9,173.8,56.7z"/>
	</g>
</g>
<g id="Layer_2_1_">
	<g id="panDeLosMuertos">
		<path class="st0" d="M8.9,47.2c0,0-19.5,19.7,1,28.8s138.7,25.8,118.8-20.7S21.5,33.8,8.9,47.2z"/>
		<path class="st1" d="M12.5,57.2c10.6-1.2,29.2-26,34.2-22.5s5.8,4,1.3,6.7s-25,16.8-5,25.2s9.8-27.2,22.5-28.8s-1.2-10.2,7.3-8.8
			s10.7,2.5,10.7,2.5s3.3-1,7.8,7.5s14.8,29,23.5,26.8s9.3-16.7-4-22.8s-13.6-4.7-13.3-10.7c0,0,7.5-2.8,16.3,10.3s17.4,7.3,7.3-1.5
			c9.2,13.2,14,8.5,1.2-4.7s-0.8-5.8-21.2-12.3c-14-4.5-14.1-0.7-20.8-9C75.5,9,77.2,3.3,64,0.5C39,2.3,52.7,20.7,45,19.8
			S26.5,21.3,24.2,29S6.2,29.3,6,46.5S10.3,57.4,12.5,57.2z"/>
	</g>
</g>
<g id="Layer_2_2_">
	<g id="panDeLosMuertos_1_">
		<path class="st0" d="M104.9,58.2c0,0-19.5,19.7,1,28.8s138.7,25.8,118.8-20.7S117.5,44.8,104.9,58.2z"/>
		<path class="st1" d="M108.5,68.2c10.6-1.2,29.2-26,34.2-22.5s5.8,4,1.3,6.7s-25,16.8-5,25.2s9.8-27.2,22.5-28.8s-1.2-10.2,7.3-8.8
			c8.5,1.3,10.7,2.5,10.7,2.5s3.3-1,7.8,7.5s14.8,29,23.5,26.8s9.3-16.7-4-22.8s-13.6-4.7-13.3-10.7c0,0,7.5-2.8,16.3,10.3
			s17.4,7.3,7.3-1.5c9.2,13.2,14,8.5,1.2-4.7s-0.8-5.8-21.2-12.3c-14-4.5-14.1-0.7-20.8-9c-4.9-6-3.2-11.7-16.4-14.5
			c-25,1.8-11.3,20.2-19,19.3s-18.5,1.5-20.8,9.2s-18,0.3-18.2,17.5S106.3,68.4,108.5,68.2z"/>
	</g>
</g>
</svg>
