<svg xmlns="http://www.w3.org/2000/svg" xmlns:xlink="http://www.w3.org/1999/xlink" viewBox="0 0 61.91 65.45"><defs><style>.cls-1,.cls-3,.cls-5,.cls-7{stroke:#ee6302;}.cls-1,.cls-2,.cls-3,.cls-4,.cls-5,.cls-6,.cls-7,.cls-8{stroke-miterlimit:10;}.cls-1{fill:url(#radial-gradient);}.cls-2{fill:url(#radial-gradient-2);stroke:url(#radial-gradient-3);}.cls-3{fill:url(#radial-gradient-4);}.cls-4{fill:url(#radial-gradient-5);stroke:url(#radial-gradient-6);}.cls-5{fill:url(#radial-gradient-7);}.cls-6{fill:url(#radial-gradient-8);stroke:url(#radial-gradient-9);}.cls-7{fill:url(#radial-gradient-10);}.cls-8{fill:url(#radial-gradient-11);stroke:url(#radial-gradient-12);}</style><radialGradient id="radial-gradient" cx="156.75" cy="6.9" r="14.01" gradientTransform="matrix(-0.38, -0.93, 0.93, -0.38, 70.11, 192.04)" gradientUnits="userSpaceOnUse"><stop offset="0" stop-color="#d62502"/><stop offset="0.13" stop-color="#d72902"/><stop offset="0.24" stop-color="#dc3402"/><stop offset="0.36" stop-color="#e34702"/><stop offset="0.47" stop-color="#ed6102"/><stop offset="0.47" stop-color="#ee6302"/><stop offset="1" stop-color="#f8d900"/></radialGradient><radialGradient id="radial-gradient-2" cx="156.94" cy="9.78" r="18.66" gradientTransform="matrix(-0.38, -0.93, 0.93, -0.38, 70.11, 192.04)" gradientUnits="userSpaceOnUse"><stop offset="0" stop-color="#d62502"/><stop offset="1" stop-color="#f8d900"/></radialGradient><radialGradient id="radial-gradient-3" cx="159.08" cy="17.76" r="13.07" xlink:href="#radial-gradient"/><radialGradient id="radial-gradient-4" cx="-69.55" cy="153.38" r="14.01" gradientTransform="translate(81.72 -143.33) rotate(-6.09)" xlink:href="#radial-gradient"/><radialGradient id="radial-gradient-5" cx="-69.37" cy="156.25" r="18.66" gradientTransform="translate(81.72 -143.33) rotate(-6.09)" xlink:href="#radial-gradient-2"/><radialGradient id="radial-gradient-6" cx="-67.22" cy="164.24" r="13.07" gradientTransform="translate(81.72 -143.33) rotate(-6.09)" xlink:href="#radial-gradient"/><radialGradient id="radial-gradient-7" cx="3.3" cy="312.22" r="14.01" gradientTransform="translate(245.42 -217.15) rotate(40.62)" xlink:href="#radial-gradient"/><radialGradient id="radial-gradient-8" cx="3.48" cy="315.1" r="18.66" gradientTransform="translate(245.42 -217.15) rotate(40.62)" xlink:href="#radial-gradient-2"/><radialGradient id="radial-gradient-9" cx="5.63" cy="323.08" r="13.07" gradientTransform="translate(245.42 -217.15) rotate(40.62)" xlink:href="#radial-gradient"/><radialGradient id="radial-gradient-10" cx="271.36" cy="340.98" r="14.01" gradientTransform="translate(452.09 205.34) rotate(149.71)" xlink:href="#radial-gradient"/><radialGradient id="radial-gradient-11" cx="271.54" cy="343.86" r="18.66" gradientTransform="translate(452.09 205.34) rotate(149.71)" xlink:href="#radial-gradient-2"/><radialGradient id="radial-gradient-12" cx="273.69" cy="351.84" r="13.07" gradientTransform="translate(452.09 205.34) rotate(149.71)" xlink:href="#radial-gradient"/></defs><title>flowe1</title><g id="Layer_2" data-name="Layer 2"><g id="flowe1"><path class="cls-1" d="M6.74,35.15c.22,1.51-3,5-4.72,5.12-5.41.46,4.93,19,10.36,5.52-11.8,13.78,9.91,16.5,11,12.71s2.52-8.89,7.32-8.57c0,0-1.1-7.32-3.2-10.83-.19-.32-3.38-7-7.28-7.44a28.32,28.32,0,0,0-8.23,1C9.08,33.4,6.63,34.39,6.74,35.15Z"/><path class="cls-2" d="M11.85,32.34h0a28.24,28.24,0,0,1,8.22-1c3.9.41,7.1,7.12,7.29,7.44,2.1,3.5,3.2,10.83,3.2,10.83,4.79.32,11.4-12,7.46-16.76s-11,3.52-15.77-2.39S11.85,32.34,11.85,32.34Z"/><path class="cls-3" d="M40.5,8.67c-1.51-.21-4-4.23-3.61-5.95,1-5.32-19.68-.52-8.17,8.44-10-15.14-18.6,5-15.26,7.1s7.84,4.88,6.21,9.4c0,0,7.35,1,11.3-.09.35-.09,7.68-1.31,9.16-4.95a28.15,28.15,0,0,0,1.3-8.18C41.54,11.4,41.26,8.78,40.5,8.67Z"/><path class="cls-4" d="M41.79,14.35h0a28.23,28.23,0,0,1-1.3,8.19c-1.48,3.63-8.8,4.85-9.16,4.95-3.95,1.05-11.29.09-11.29.09-1.63,4.52,8.35,14.26,14.05,11.79s-.36-11.51,6.65-14.5S41.79,14.35,41.79,14.35Z"/><path class="cls-5" d="M58.38,25.07c-.89-1.25.37-5.78,1.85-6.71,4.6-2.9-13.11-14.68-11.74-.16C52.66.54,32.12,8.07,32.85,12s1.83,9.05-2.57,11c0,0,4.33,6,7.8,8.16.32.19,6.23,4.69,9.89,3.27a28.68,28.68,0,0,0,6.85-4.66C57.1,27.69,58.82,25.69,58.38,25.07Z"/><path class="cls-6" d="M55.13,29.9h0a28.1,28.1,0,0,1-6.85,4.66c-3.66,1.42-9.57-3.07-9.89-3.27-3.47-2.15-7.8-8.16-7.8-8.16C26.18,25.05,25.93,39,31.64,41.44s8.13-8.15,15.11-5.09S55.13,29.9,55.13,29.9Z"/><path class="cls-7" d="M38.38,59.74c1.47-.42,5.34,2.25,5.74,3.95,1.23,5.29,18.16-7.59,4-11,15.33,9.71,14.93-12.17,11-12.74s-9.16-1.23-9.53-6c0,0-7.09,2.13-10.26,4.71C39,38.83,32.86,43,33,46.87a28.65,28.65,0,0,0,2.17,8C36.32,57.68,37.64,60,38.38,59.74Z"/><path class="cls-8" d="M34.87,55.09h0a28.16,28.16,0,0,1-2.16-8c-.15-3.92,6-8,6.32-8.27,3.17-2.58,10.27-4.71,10.27-4.71-.37-4.79-13.47-9.58-17.65-5s5,10.35-.13,16S34.87,55.09,34.87,55.09Z"/></g></g></svg>