<svg xmlns="http://www.w3.org/2000/svg" xmlns:xlink="http://www.w3.org/1999/xlink" viewBox="0 0 192.88 190.4"><defs><style>.cls-1,.cls-11,.cls-13,.cls-15,.cls-3,.cls-5,.cls-7,.cls-9{stroke:#ee6302;}.cls-1,.cls-10,.cls-11,.cls-12,.cls-13,.cls-14,.cls-15,.cls-16,.cls-2,.cls-3,.cls-4,.cls-5,.cls-6,.cls-7,.cls-8,.cls-9{stroke-miterlimit:10;}.cls-1{fill:url(#radial-gradient);}.cls-2{fill:url(#radial-gradient-2);stroke:url(#radial-gradient-3);}.cls-3{fill:url(#radial-gradient-4);}.cls-4{fill:url(#radial-gradient-5);stroke:url(#radial-gradient-6);}.cls-5{fill:url(#radial-gradient-7);}.cls-6{fill:url(#radial-gradient-8);stroke:url(#radial-gradient-9);}.cls-7{fill:url(#radial-gradient-10);}.cls-8{fill:url(#radial-gradient-11);stroke:url(#radial-gradient-12);}.cls-9{fill:url(#radial-gradient-13);}.cls-10{fill:url(#radial-gradient-14);stroke:url(#radial-gradient-15);}.cls-11{fill:url(#radial-gradient-16);}.cls-12{fill:url(#radial-gradient-17);stroke:url(#radial-gradient-18);}.cls-13{fill:url(#radial-gradient-19);}.cls-14{fill:url(#radial-gradient-20);stroke:url(#radial-gradient-21);}.cls-15{fill:url(#radial-gradient-22);}.cls-16{fill:url(#radial-gradient-23);stroke:url(#radial-gradient-24);}</style><radialGradient id="radial-gradient" cx="98.9" cy="25.64" r="24.9" gradientTransform="matrix(-0.71, -0.71, -0.71, 0.71, 231.21, 95.77)" gradientUnits="userSpaceOnUse"><stop offset="0" stop-color="#d62502"/><stop offset="0.13" stop-color="#d72902"/><stop offset="0.24" stop-color="#dc3402"/><stop offset="0.36" stop-color="#e34702"/><stop offset="0.47" stop-color="#ed6102"/><stop offset="0.47" stop-color="#ee6302"/><stop offset="1" stop-color="#f8d900"/></radialGradient><radialGradient id="radial-gradient-2" cx="99.23" cy="30.74" r="33.17" gradientTransform="matrix(-0.71, -0.71, -0.71, 0.71, 231.21, 95.77)" gradientUnits="userSpaceOnUse"><stop offset="0" stop-color="#d62502"/><stop offset="1" stop-color="#f8d900"/></radialGradient><radialGradient id="radial-gradient-3" cx="103.04" cy="45.3" r="22.67" xlink:href="#radial-gradient"/><radialGradient id="radial-gradient-4" cx="98.96" cy="25.77" r="24.9" gradientTransform="matrix(0, -1, -1, 0, 190.59, 190.59)" xlink:href="#radial-gradient"/><radialGradient id="radial-gradient-5" cx="99.29" cy="30.88" r="33.17" gradientTransform="matrix(0, -1, -1, 0, 190.59, 190.59)" xlink:href="#radial-gradient-2"/><radialGradient id="radial-gradient-6" cx="103.1" cy="45.44" r="22.67" gradientTransform="matrix(0, -1, -1, 0, 190.59, 190.59)" xlink:href="#radial-gradient"/><radialGradient id="radial-gradient-7" cx="98.9" cy="25.91" r="24.9" gradientTransform="matrix(0.71, -0.71, -0.71, -0.71, 94.82, 228.92)" xlink:href="#radial-gradient"/><radialGradient id="radial-gradient-8" cx="99.23" cy="31.02" r="33.17" gradientTransform="matrix(0.71, -0.71, -0.71, -0.71, 94.82, 228.92)" xlink:href="#radial-gradient-2"/><radialGradient id="radial-gradient-9" cx="103.04" cy="45.57" r="22.67" gradientTransform="matrix(0.71, -0.71, -0.71, -0.71, 94.82, 228.92)" xlink:href="#radial-gradient"/><radialGradient id="radial-gradient-10" cx="98.76" cy="25.97" r="24.9" gradientTransform="matrix(1, 0, 0, -1, 0, 188.31)" xlink:href="#radial-gradient"/><radialGradient id="radial-gradient-11" cx="99.1" cy="31.08" r="33.17" gradientTransform="matrix(1, 0, 0, -1, 0, 188.31)" xlink:href="#radial-gradient-2"/><radialGradient id="radial-gradient-12" cx="102.91" cy="45.63" r="22.67" gradientTransform="matrix(1, 0, 0, -1, 0, 188.31)" xlink:href="#radial-gradient"/><radialGradient id="radial-gradient-13" cx="98.63" cy="25.91" r="24.9" gradientTransform="matrix(0.71, 0.71, 0.71, -0.71, -38.33, 92.53)" xlink:href="#radial-gradient"/><radialGradient id="radial-gradient-14" cx="98.96" cy="31.02" r="33.17" gradientTransform="matrix(0.71, 0.71, 0.71, -0.71, -38.33, 92.53)" xlink:href="#radial-gradient-2"/><radialGradient id="radial-gradient-15" cx="102.77" cy="45.57" r="22.67" gradientTransform="matrix(0.71, 0.71, 0.71, -0.71, -38.33, 92.53)" xlink:href="#radial-gradient"/><radialGradient id="radial-gradient-16" cx="98.57" cy="25.77" r="24.9" gradientTransform="matrix(0, 1, 1, 0, 2.29, -2.29)" xlink:href="#radial-gradient"/><radialGradient id="radial-gradient-17" cx="98.9" cy="30.88" r="33.17" gradientTransform="matrix(0, 1, 1, 0, 2.29, -2.29)" xlink:href="#radial-gradient-2"/><radialGradient id="radial-gradient-18" cx="102.71" cy="45.44" r="22.67" gradientTransform="matrix(0, 1, 1, 0, 2.29, -2.29)" xlink:href="#radial-gradient"/><radialGradient id="radial-gradient-19" cx="98.63" cy="25.64" r="24.9" gradientTransform="matrix(-0.71, 0.71, 0.71, 0.71, 98.06, -40.62)" xlink:href="#radial-gradient"/><radialGradient id="radial-gradient-20" cx="98.96" cy="30.74" r="33.17" gradientTransform="matrix(-0.71, 0.71, 0.71, 0.71, 98.06, -40.62)" xlink:href="#radial-gradient-2"/><radialGradient id="radial-gradient-21" cx="102.77" cy="45.3" r="22.67" gradientTransform="matrix(-0.71, 0.71, 0.71, 0.71, 98.06, -40.62)" xlink:href="#radial-gradient"/><radialGradient id="radial-gradient-22" cx="98.71" cy="27.41" r="24.3" gradientTransform="matrix(-1, 0, 0, 1, 192.88, 0)" xlink:href="#radial-gradient"/><radialGradient id="radial-gradient-23" cx="99.03" cy="32.39" r="32.38" gradientTransform="matrix(-1, 0, 0, 1, 192.88, 0)" xlink:href="#radial-gradient-2"/><radialGradient id="radial-gradient-24" cx="102.75" cy="46.59" r="22.15" gradientTransform="matrix(-1, 0, 0, 1, 192.88, 0)" xlink:href="#radial-gradient"/></defs><title>flower4</title><g id="Layer_2" data-name="Layer 2"><g id="flower4"><path class="cls-1" d="M135.8,20c2.33,1.4,10.19-1.44,11.64-4.19,4.5-8.54,27.8,21.25,1.88,20.78,30.73-9.78,20.17,27.65,13.18,26.88s-16.3-2-19.09,6.05c0,0-11.24-6.86-15.53-12.73-.39-.53-9.16-10.4-7.14-17.07,1-3.31,4.14-8.53,7.34-12.78S134.63,19.32,135.8,20Z"/><path class="cls-2" d="M127.67,26.44h0c-3.2,4.25-6.34,9.46-7.34,12.77-2,6.68,6.76,16.55,7.14,17.08C131.76,62.15,143,69,143,69c-2.8,8.07-27.48,10.4-32.6.62s13.35-15.52,7-27.48S127.67,26.44,127.67,26.44Z"/><path class="cls-3" d="M176.55,69.51c.66,2.63,8.23,6.18,11.2,5.27,9.22-2.86,4.63,34.67-13.37,16,28.65,14.82-5.29,33.82-9.68,28.33s-10.1-13-17.78-9.22c0,0-3.09-12.8-2-20,.1-.65.88-13.83,7-17.12,3-1.63,8.95-3.1,14.22-3.85S176.22,68.18,176.55,69.51Z"/><path class="cls-4" d="M166.27,68.29h0c-5.27.75-11.17,2.22-14.22,3.85-6.15,3.3-6.93,16.48-7,17.13-1.11,7.18,2,20,2,20-7.69,3.74-26.79-12.07-23.49-22.61s20.41-1.53,24.37-14.49S166.27,68.29,166.27,68.29Z"/><path class="cls-5" d="M170.38,133.32c-1.4,2.33,1.44,10.19,4.19,11.64,8.54,4.5-21.25,27.8-20.78,1.87,9.78,30.74-27.65,20.17-26.88,13.19s2-16.3-6-19.1c0,0,6.86-11.23,12.73-15.52.53-.39,10.4-9.16,17.07-7.14,3.31,1,8.53,4.14,12.78,7.33S171.08,132.14,170.38,133.32Z"/><path class="cls-6" d="M164,125.18h0c-4.25-3.19-9.46-6.33-12.77-7.33-6.68-2-16.55,6.75-17.08,7.14-5.86,4.29-12.73,15.53-12.73,15.53-8.07-2.8-10.4-27.48-.62-32.6s15.52,13.35,27.48,7S164,125.18,164,125.18Z"/><path class="cls-7" d="M120.89,174.07c-2.63.66-6.19,8.23-5.27,11.2,2.86,9.22-34.67,4.63-16-13.37-14.82,28.65-33.82-5.29-28.33-9.68s13-10.1,9.22-17.79c0,0,12.8-3.08,20-2,.65.1,13.83.88,17.12,7,1.63,3.05,3.1,9,3.85,14.22S122.22,173.74,120.89,174.07Z"/><path class="cls-8" d="M122.11,163.78h0c-.75-5.26-2.22-11.17-3.85-14.21-3.3-6.15-16.48-6.93-17.13-7-7.18-1.11-20,2-20,2-3.74-7.69,12.07-26.79,22.61-23.49s1.53,20.41,14.49,24.36S122.11,163.78,122.11,163.78Z"/><path class="cls-9" d="M57.08,167.9c-2.33-1.4-10.19,1.44-11.64,4.19-4.5,8.54-27.8-21.25-1.87-20.78-30.74,9.78-20.17-27.66-13.19-26.88s16.3,2,19.1-6.05c0,0,11.23,6.86,15.52,12.73.39.53,9.16,10.4,7.14,17.07-1,3.31-4.14,8.53-7.33,12.78S58.26,168.6,57.08,167.9Z"/><path class="cls-10" d="M65.22,161.48h0c3.19-4.25,6.33-9.47,7.33-12.78,2-6.67-6.75-16.54-7.14-17.07-4.29-5.86-15.53-12.73-15.53-12.73,2.8-8.07,27.48-10.4,32.6-.62s-13.35,15.52-7,27.48S65.22,161.48,65.22,161.48Z"/><path class="cls-11" d="M16.33,118.41c-.66-2.64-8.23-6.19-11.2-5.27C-4.09,116,.5,78.46,18.5,97.12c-28.65-14.82,5.29-33.81,9.68-28.33S38.28,81.75,46,78c0,0,3.08,12.79,2,20-.1.65-.88,13.83-7,17.13-3.05,1.63-9,3.1-14.22,3.85S16.66,119.74,16.33,118.41Z"/><path class="cls-12" d="M26.61,119.62h0c5.27-.74,11.18-2.21,14.22-3.85,6.15-3.29,6.93-16.47,7-17.12,1.11-7.18-2-20-2-20,7.69-3.73,26.79,12.08,23.49,22.62S49,102.82,45,115.77,26.61,119.62,26.61,119.62Z"/><path class="cls-13" d="M22.5,54.6c1.4-2.33-1.44-10.19-4.19-11.64-8.54-4.5,21.25-27.8,20.78-1.88C29.31,10.35,66.75,20.91,66,27.9S64,44.2,72,47c0,0-6.86,11.24-12.73,15.53-.53.39-10.4,9.16-17.07,7.14-3.31-1-8.53-4.14-12.78-7.34S21.8,55.77,22.5,54.6Z"/><path class="cls-14" d="M28.92,62.73h0c4.25,3.2,9.47,6.33,12.78,7.34,6.67,2,16.54-6.76,17.07-7.15C64.63,58.63,71.5,47.4,71.5,47.4c8.07,2.8,10.4,27.48.62,32.6S56.6,66.65,44.64,73,28.92,62.73,28.92,62.73Z"/><path class="cls-15" d="M72.57,16c2.58-.64,6-8,5.15-10.93C74.93-4,111.57.5,93.35,18.07c14.47-28,33,5.17,27.65,9.45s-12.64,9.86-9,17.36c0,0-12.49,3-19.5,1.93C91.87,46.71,79,46,75.79,40c-1.6-3-3-8.74-3.76-13.88S71.28,16.28,72.57,16Z"/><path class="cls-16" d="M71.39,26h0c.73,5.14,2.16,10.91,3.76,13.88,3.21,6,16.08,6.76,16.71,6.86,7,1.09,19.5-1.93,19.5-1.93C115,52.3,99.58,71,89.29,67.73S87.79,47.8,75.15,43.94,71.39,26,71.39,26Z"/></g></g></svg>