<svg xmlns="http://www.w3.org/2000/svg" xmlns:xlink="http://www.w3.org/1999/xlink" viewBox="0 0 364.08 364.08"><defs><style>.cls-1,.cls-11,.cls-13,.cls-15,.cls-17,.cls-19,.cls-21,.cls-23,.cls-3,.cls-5,.cls-7,.cls-9{stroke:#ee6302;}.cls-1,.cls-10,.cls-11,.cls-12,.cls-13,.cls-14,.cls-15,.cls-16,.cls-17,.cls-18,.cls-19,.cls-2,.cls-20,.cls-21,.cls-22,.cls-23,.cls-24,.cls-3,.cls-4,.cls-5,.cls-6,.cls-7,.cls-8,.cls-9{stroke-miterlimit:10;}.cls-1{fill:url(#radial-gradient);}.cls-2{fill:url(#radial-gradient-2);stroke:url(#radial-gradient-3);}.cls-3{fill:url(#radial-gradient-4);}.cls-4{fill:url(#radial-gradient-5);stroke:url(#radial-gradient-6);}.cls-5{fill:url(#radial-gradient-7);}.cls-6{fill:url(#radial-gradient-8);stroke:url(#radial-gradient-9);}.cls-7{fill:url(#radial-gradient-10);}.cls-8{fill:url(#radial-gradient-11);stroke:url(#radial-gradient-12);}.cls-9{fill:url(#radial-gradient-13);}.cls-10{fill:url(#radial-gradient-14);stroke:url(#radial-gradient-15);}.cls-11{fill:url(#radial-gradient-16);}.cls-12{fill:url(#radial-gradient-17);stroke:url(#radial-gradient-18);}.cls-13{fill:url(#radial-gradient-19);}.cls-14{fill:url(#radial-gradient-20);stroke:url(#radial-gradient-21);}.cls-15{fill:url(#radial-gradient-22);}.cls-16{fill:url(#radial-gradient-23);stroke:url(#radial-gradient-24);}.cls-17{fill:url(#radial-gradient-25);}.cls-18{fill:url(#radial-gradient-26);stroke:url(#radial-gradient-27);}.cls-19{fill:url(#radial-gradient-28);}.cls-20{fill:url(#radial-gradient-29);stroke:url(#radial-gradient-30);}.cls-21{fill:url(#radial-gradient-31);}.cls-22{fill:url(#radial-gradient-32);stroke:url(#radial-gradient-33);}.cls-23{fill:url(#radial-gradient-34);}.cls-24{fill:url(#radial-gradient-35);stroke:url(#radial-gradient-36);}</style><radialGradient id="radial-gradient" cx="112.05" cy="47.17" r="35.61" gradientTransform="matrix(0.84, 0.54, 0.54, -0.84, -42.34, 264.44)" gradientUnits="userSpaceOnUse"><stop offset="0" stop-color="#d62502"/><stop offset="0.13" stop-color="#d72902"/><stop offset="0.24" stop-color="#dc3402"/><stop offset="0.36" stop-color="#e34702"/><stop offset="0.47" stop-color="#ed6102"/><stop offset="0.47" stop-color="#ee6302"/><stop offset="1" stop-color="#f8d900"/></radialGradient><radialGradient id="radial-gradient-2" cx="112.52" cy="54.48" r="47.43" gradientTransform="matrix(0.84, 0.54, 0.54, -0.84, -42.34, 264.44)" gradientUnits="userSpaceOnUse"><stop offset="0" stop-color="#d62502"/><stop offset="1" stop-color="#f8d900"/></radialGradient><radialGradient id="radial-gradient-3" cx="117.97" cy="75.49" r="32.1" xlink:href="#radial-gradient"/><radialGradient id="radial-gradient-4" cx="112.05" cy="47.17" r="35.61" gradientTransform="matrix(0.46, 0.89, 0.89, -0.46, -53.48, 141.21)" xlink:href="#radial-gradient"/><radialGradient id="radial-gradient-5" cx="112.52" cy="54.48" r="47.43" gradientTransform="matrix(0.46, 0.89, 0.89, -0.46, -53.48, 141.21)" xlink:href="#radial-gradient-2"/><radialGradient id="radial-gradient-6" cx="117.97" cy="75.49" r="32.1" gradientTransform="matrix(0.46, 0.89, 0.89, -0.46, -53.48, 141.21)" xlink:href="#radial-gradient"/><radialGradient id="radial-gradient-7" cx="112.05" cy="47.17" r="35.61" gradientTransform="matrix(-0.05, 1, 1, 0.05, -1.51, 28.92)" xlink:href="#radial-gradient"/><radialGradient id="radial-gradient-8" cx="112.52" cy="54.48" r="47.43" gradientTransform="matrix(-0.05, 1, 1, 0.05, -1.51, 28.92)" xlink:href="#radial-gradient-2"/><radialGradient id="radial-gradient-9" cx="117.97" cy="75.49" r="32.1" gradientTransform="matrix(-0.05, 1, 1, 0.05, -1.51, 28.92)" xlink:href="#radial-gradient"/><radialGradient id="radial-gradient-10" cx="112.05" cy="47.17" r="35.61" gradientTransform="matrix(-0.54, 0.84, 0.84, 0.54, 99.65, -42.34)" xlink:href="#radial-gradient"/><radialGradient id="radial-gradient-11" cx="112.52" cy="54.48" r="47.43" gradientTransform="matrix(-0.54, 0.84, 0.84, 0.54, 99.65, -42.34)" xlink:href="#radial-gradient-2"/><radialGradient id="radial-gradient-12" cx="117.97" cy="75.49" r="32.1" gradientTransform="matrix(-0.54, 0.84, 0.84, 0.54, 99.65, -42.34)" xlink:href="#radial-gradient"/><radialGradient id="radial-gradient-13" cx="112.05" cy="47.17" r="35.61" gradientTransform="matrix(-0.89, 0.46, 0.46, 0.89, 222.88, -53.48)" xlink:href="#radial-gradient"/><radialGradient id="radial-gradient-14" cx="112.52" cy="54.48" r="47.43" gradientTransform="matrix(-0.89, 0.46, 0.46, 0.89, 222.88, -53.48)" xlink:href="#radial-gradient-2"/><radialGradient id="radial-gradient-15" cx="117.97" cy="75.49" r="32.1" gradientTransform="matrix(-0.89, 0.46, 0.46, 0.89, 222.88, -53.48)" xlink:href="#radial-gradient"/><radialGradient id="radial-gradient-16" cx="112.05" cy="47.17" r="35.61" gradientTransform="matrix(-1, -0.05, -0.05, 1, 335.17, -1.51)" xlink:href="#radial-gradient"/><radialGradient id="radial-gradient-17" cx="112.52" cy="54.48" r="47.43" gradientTransform="matrix(-1, -0.05, -0.05, 1, 335.17, -1.51)" xlink:href="#radial-gradient-2"/><radialGradient id="radial-gradient-18" cx="117.97" cy="75.49" r="32.1" gradientTransform="matrix(-1, -0.05, -0.05, 1, 335.17, -1.51)" xlink:href="#radial-gradient"/><radialGradient id="radial-gradient-19" cx="112.05" cy="47.17" r="35.61" gradientTransform="matrix(-0.84, -0.54, -0.54, 0.84, 406.42, 99.65)" xlink:href="#radial-gradient"/><radialGradient id="radial-gradient-20" cx="112.52" cy="54.48" r="47.43" gradientTransform="matrix(-0.84, -0.54, -0.54, 0.84, 406.42, 99.65)" xlink:href="#radial-gradient-2"/><radialGradient id="radial-gradient-21" cx="117.97" cy="75.49" r="32.1" gradientTransform="matrix(-0.84, -0.54, -0.54, 0.84, 406.42, 99.65)" xlink:href="#radial-gradient"/><radialGradient id="radial-gradient-22" cx="112.05" cy="47.17" r="35.61" gradientTransform="matrix(-0.46, -0.89, -0.89, 0.46, 417.56, 222.88)" xlink:href="#radial-gradient"/><radialGradient id="radial-gradient-23" cx="112.52" cy="54.48" r="47.43" gradientTransform="matrix(-0.46, -0.89, -0.89, 0.46, 417.56, 222.88)" xlink:href="#radial-gradient-2"/><radialGradient id="radial-gradient-24" cx="117.97" cy="75.49" r="32.1" gradientTransform="matrix(-0.46, -0.89, -0.89, 0.46, 417.56, 222.88)" xlink:href="#radial-gradient"/><radialGradient id="radial-gradient-25" cx="112.05" cy="47.17" r="35.61" gradientTransform="matrix(0.05, -1, -1, -0.05, 365.59, 335.17)" xlink:href="#radial-gradient"/><radialGradient id="radial-gradient-26" cx="112.52" cy="54.48" r="47.43" gradientTransform="matrix(0.05, -1, -1, -0.05, 365.59, 335.17)" xlink:href="#radial-gradient-2"/><radialGradient id="radial-gradient-27" cx="117.97" cy="75.49" r="32.1" gradientTransform="matrix(0.05, -1, -1, -0.05, 365.59, 335.17)" xlink:href="#radial-gradient"/><radialGradient id="radial-gradient-28" cx="112.05" cy="47.17" r="35.61" gradientTransform="matrix(0.54, -0.84, -0.84, -0.54, 264.44, 406.42)" xlink:href="#radial-gradient"/><radialGradient id="radial-gradient-29" cx="112.52" cy="54.48" r="47.43" gradientTransform="matrix(0.54, -0.84, -0.84, -0.54, 264.44, 406.42)" xlink:href="#radial-gradient-2"/><radialGradient id="radial-gradient-30" cx="117.97" cy="75.49" r="32.1" gradientTransform="matrix(0.54, -0.84, -0.84, -0.54, 264.44, 406.42)" xlink:href="#radial-gradient"/><radialGradient id="radial-gradient-31" cx="112.05" cy="47.17" r="35.61" gradientTransform="matrix(0.89, -0.46, -0.46, -0.89, 141.21, 417.56)" xlink:href="#radial-gradient"/><radialGradient id="radial-gradient-32" cx="112.52" cy="54.48" r="47.43" gradientTransform="matrix(0.89, -0.46, -0.46, -0.89, 141.21, 417.56)" xlink:href="#radial-gradient-2"/><radialGradient id="radial-gradient-33" cx="117.97" cy="75.49" r="32.1" gradientTransform="matrix(0.89, -0.46, -0.46, -0.89, 141.21, 417.56)" xlink:href="#radial-gradient"/><radialGradient id="radial-gradient-34" cx="112.05" cy="47.17" r="35.61" gradientTransform="matrix(1, 0.05, 0.05, -1, 28.92, 365.59)" xlink:href="#radial-gradient"/><radialGradient id="radial-gradient-35" cx="112.52" cy="54.48" r="47.43" gradientTransform="matrix(1, 0.05, 0.05, -1, 28.92, 365.59)" xlink:href="#radial-gradient-2"/><radialGradient id="radial-gradient-36" cx="117.97" cy="75.49" r="32.1" gradientTransform="matrix(1, 0.05, 0.05, -1, 28.92, 365.59)" xlink:href="#radial-gradient"/></defs><title>flower6</title><g id="Layer_2" data-name="Layer 2"><g id="flower6"><path class="cls-1" d="M95.09,316.25c-3.68-1.24-13.8,5.15-15,9.43-3.66,13.31-45.34-21.14-9-28.45-39.93,23.1-36.67-32.43-26.67-33.49s23.38-2.19,24.81-14.32c0,0,17.79,6.14,25.59,13,.7.63,16,11.72,15.21,21.66-.38,4.93-3.16,13.18-6.31,20.1S96.94,316.87,95.09,316.25Z"/><path class="cls-2" d="M104.48,304.79h0c3.15-6.91,5.93-15.16,6.31-20.09.77-9.95-14.51-21-15.21-21.66C87.79,256.17,70,250,70,250c1.42-12.14,35.18-23,45.34-10.88s-13.88,25.78-1.32,40.52S104.48,304.79,104.48,304.79Z"/><path class="cls-3" d="M39.63,254.79c-2.57-2.91-14.52-2.44-17.68.68-9.83,9.69-28.7-41,6.43-29.13-46.12,0-15.53-46.42-6.35-42.34s21.35,9.8,28.65,0c0,0,12.34,14.22,15.65,24.07.3.89,8,18.13,2.35,26.36-2.79,4.08-9.33,9.83-15.52,14.25S40.93,256.26,39.63,254.79Z"/><path class="cls-4" d="M53.49,249.57h0c6.19-4.42,12.73-10.17,15.52-14.25,5.64-8.23-2.05-25.47-2.35-26.36C63.35,199.11,51,184.89,51,184.89c7.3-9.79,41.95-2.29,44.7,13.25s-24.91,15.39-21.4,34.43S53.49,249.57,53.49,249.57Z"/><path class="cls-5" d="M22.34,173.84C21.57,170,11,164.47,6.68,165.59c-13.35,3.48-4.36-49.84,20.14-22-40-23,9.75-48,15.67-39.84s13.59,19.16,24.81,14.33c0,0,3.58,18.48,1.52,28.66-.18.93-2.15,19.71-11.14,24-4.46,2.14-13,3.85-20.57,4.58S22.73,175.76,22.34,173.84Z"/><path class="cls-6" d="M37,176.24h0c7.57-.72,16.11-2.44,20.57-4.57,9-4.31,11-23.09,11.14-24C70.72,137.48,67.14,119,67.14,119c11.22-4.83,37.48,19,32.09,33.83s-29.27.87-35.75,19.12S37,176.24,37,176.24Z"/><path class="cls-7" d="M47.83,95.09c1.24-3.68-5.15-13.8-9.43-15-13.3-3.66,21.14-45.34,28.45-9-23.1-39.93,32.43-36.67,33.49-26.67s2.19,23.38,14.32,24.81c0,0-6.14,17.79-13,25.59-.62.7-11.71,16-21.66,15.21-4.93-.38-13.18-3.16-20.09-6.31S47.21,96.94,47.83,95.09Z"/><path class="cls-8" d="M59.29,104.48h0c6.92,3.15,15.17,5.93,20.1,6.31,9.94.77,21-14.51,21.65-15.21,6.88-7.79,13-25.59,13-25.59,12.13,1.42,23,35.18,10.87,45.34S99.15,101.45,84.41,114,59.29,104.48,59.29,104.48Z"/><path class="cls-9" d="M109.29,39.63c2.91-2.57,2.44-14.52-.68-17.68-9.69-9.83,41-28.7,29.14,6.43,0-46.12,46.41-15.53,42.33-6.35s-9.79,21.35,0,28.65c0,0-14.21,12.34-24.06,15.65-.9.3-18.14,8-26.37,2.35-4.08-2.79-9.83-9.33-14.24-15.52S107.82,40.93,109.29,39.63Z"/><path class="cls-10" d="M114.52,53.49h0c4.41,6.19,10.16,12.73,14.24,15.52,8.23,5.64,25.47-2.05,26.37-2.35C165,63.35,179.19,51,179.19,51c9.8,7.3,2.3,41.95-13.25,44.7s-15.39-24.91-34.43-21.4S114.52,53.49,114.52,53.49Z"/><path class="cls-11" d="M190.24,22.34c3.81-.77,9.37-11.36,8.25-15.66-3.47-13.35,49.85-4.36,22,20.14,23-40,48,9.75,39.84,15.67S241.19,56.08,246,67.3c0,0-18.49,3.58-28.67,1.52-.93-.18-19.7-2.15-24-11.14-2.13-4.46-3.85-13-4.58-20.57S188.32,22.73,190.24,22.34Z"/><path class="cls-12" d="M187.84,37h0c.72,7.57,2.44,16.11,4.58,20.57,4.3,9,23.08,11,24,11.14,10.19,2.06,28.67-1.52,28.67-1.52,4.83,11.22-19,37.48-33.83,32.09S210.39,70,192.15,63.48,187.84,37,187.84,37Z"/><path class="cls-13" d="M269,47.83c3.69,1.24,13.8-5.15,15-9.43,3.66-13.3,45.35,21.14,9,28.45,39.92-23.1,36.66,32.43,26.66,33.49s-23.38,2.19-24.8,14.32c0,0-17.8-6.14-25.59-13-.71-.62-16-11.71-15.22-21.66.38-4.93,3.16-13.18,6.32-20.09S267.14,47.21,269,47.83Z"/><path class="cls-14" d="M259.61,59.29h0c-3.16,6.92-5.94,15.17-6.32,20.1-.77,9.94,14.51,21,15.21,21.65,7.8,6.88,25.6,13,25.6,13-1.43,12.13-35.19,23-45.34,10.87s13.87-25.78,1.31-40.52S259.61,59.29,259.61,59.29Z"/><path class="cls-15" d="M324.45,109.29c2.57,2.91,14.52,2.44,17.68-.68,9.83-9.69,28.71,41-6.43,29.14,46.13,0,15.54,46.41,6.35,42.33s-21.35-9.79-28.64,0c0,0-12.35-14.21-15.66-24.06-.3-.9-8-18.14-2.35-26.37,2.79-4.08,9.33-9.83,15.52-14.24S323.15,107.82,324.45,109.29Z"/><path class="cls-16" d="M310.59,114.52h0c-6.19,4.41-12.73,10.16-15.52,14.24-5.64,8.23,2.05,25.47,2.35,26.37,3.31,9.85,15.66,24.06,15.66,24.06-7.3,9.8-41.95,2.3-44.71-13.25s24.91-15.39,21.4-34.43S310.59,114.52,310.59,114.52Z"/><path class="cls-17" d="M341.75,190.24c.77,3.81,11.35,9.37,15.65,8.25,13.36-3.47,4.37,49.85-20.14,22,40,23-9.75,48-15.67,39.84S308,241.19,296.79,246c0,0-3.59-18.49-1.53-28.67.19-.93,2.15-19.7,11.15-24,4.46-2.13,13-3.85,20.56-4.58S341.36,188.32,341.75,190.24Z"/><path class="cls-18" d="M327.13,187.84h0c-7.57.72-16.1,2.44-20.56,4.58-9,4.3-11,23.08-11.15,24-2.06,10.19,1.53,28.67,1.53,28.67-11.22,4.83-37.48-19-32.1-33.83s29.27-.87,35.76-19.11S327.13,187.84,327.13,187.84Z"/><path class="cls-19" d="M316.25,269c-1.24,3.69,5.15,13.8,9.43,15,13.31,3.66-21.14,45.35-28.45,9,23.1,39.92-32.43,36.66-33.49,26.66s-2.19-23.38-14.32-24.8c0,0,6.14-17.8,13-25.59.63-.71,11.72-16,21.66-15.22,4.93.38,13.18,3.16,20.1,6.32S316.87,267.14,316.25,269Z"/><path class="cls-20" d="M304.79,259.61h0c-6.91-3.16-15.16-5.94-20.09-6.32-9.95-.77-21,14.51-21.66,15.21-6.87,7.8-13,25.6-13,25.6-12.14-1.43-23-35.19-10.88-45.34s25.78,13.87,40.52,1.31S304.79,259.61,304.79,259.61Z"/><path class="cls-21" d="M254.79,324.45c-2.91,2.57-2.44,14.52.68,17.68,9.69,9.83-41,28.71-29.13-6.43,0,46.13-46.42,15.54-42.34,6.35s9.8-21.35,0-28.64c0,0,14.22-12.35,24.07-15.66.89-.3,18.13-8,26.36-2.35,4.08,2.79,9.83,9.33,14.25,15.52S256.26,323.15,254.79,324.45Z"/><path class="cls-22" d="M249.57,310.59h0c-4.42-6.19-10.17-12.73-14.25-15.52-8.23-5.64-25.47,2.05-26.36,2.35-9.85,3.31-24.07,15.66-24.07,15.66-9.79-7.3-2.29-41.95,13.25-44.71s15.39,24.91,34.43,21.4S249.57,310.59,249.57,310.59Z"/><path class="cls-23" d="M173.84,341.75c-3.81.77-9.37,11.35-8.25,15.65,3.48,13.36-49.84,4.37-22-20.14-23,40-48-9.75-39.84-15.67s19.16-13.58,14.33-24.8c0,0,18.48-3.59,28.66-1.53.93.19,19.71,2.15,24,11.15,2.14,4.46,3.85,13,4.58,20.56S175.76,341.36,173.84,341.75Z"/><path class="cls-24" d="M176.24,327.13h0c-.72-7.57-2.44-16.1-4.57-20.56-4.31-9-23.09-11-24-11.15C137.48,293.36,119,297,119,297c-4.83-11.22,19-37.48,33.83-32.1s.87,29.27,19.12,35.76S176.24,327.13,176.24,327.13Z"/></g></g></svg>