<svg xmlns="http://www.w3.org/2000/svg" xmlns:xlink="http://www.w3.org/1999/xlink" viewBox="0 0 388.71 388.71"><defs><style>.cls-1,.cls-11,.cls-13,.cls-15,.cls-17,.cls-19,.cls-21,.cls-23,.cls-3,.cls-5,.cls-7,.cls-9{stroke:#ee6302;}.cls-1,.cls-10,.cls-11,.cls-12,.cls-13,.cls-14,.cls-15,.cls-16,.cls-17,.cls-18,.cls-19,.cls-2,.cls-20,.cls-21,.cls-22,.cls-23,.cls-24,.cls-3,.cls-4,.cls-5,.cls-6,.cls-7,.cls-8,.cls-9{stroke-miterlimit:10;}.cls-1{fill:url(#radial-gradient);}.cls-2{fill:url(#radial-gradient-2);stroke:url(#radial-gradient-3);}.cls-3{fill:url(#radial-gradient-4);}.cls-4{fill:url(#radial-gradient-5);stroke:url(#radial-gradient-6);}.cls-5{fill:url(#radial-gradient-7);}.cls-6{fill:url(#radial-gradient-8);stroke:url(#radial-gradient-9);}.cls-7{fill:url(#radial-gradient-10);}.cls-8{fill:url(#radial-gradient-11);stroke:url(#radial-gradient-12);}.cls-9{fill:url(#radial-gradient-13);}.cls-10{fill:url(#radial-gradient-14);stroke:url(#radial-gradient-15);}.cls-11{fill:url(#radial-gradient-16);}.cls-12{fill:url(#radial-gradient-17);stroke:url(#radial-gradient-18);}.cls-13{fill:url(#radial-gradient-19);}.cls-14{fill:url(#radial-gradient-20);stroke:url(#radial-gradient-21);}.cls-15{fill:url(#radial-gradient-22);}.cls-16{fill:url(#radial-gradient-23);stroke:url(#radial-gradient-24);}.cls-17{fill:url(#radial-gradient-25);}.cls-18{fill:url(#radial-gradient-26);stroke:url(#radial-gradient-27);}.cls-19{fill:url(#radial-gradient-28);}.cls-20{fill:url(#radial-gradient-29);stroke:url(#radial-gradient-30);}.cls-21{fill:url(#radial-gradient-31);}.cls-22{fill:url(#radial-gradient-32);stroke:url(#radial-gradient-33);}.cls-23{fill:url(#radial-gradient-34);}.cls-24{fill:url(#radial-gradient-35);stroke:url(#radial-gradient-36);}</style><radialGradient id="radial-gradient" cx="124.6" cy="50.94" r="37.99" gradientTransform="translate(437.93 281.28) rotate(147.68)" gradientUnits="userSpaceOnUse"><stop offset="0" stop-color="#d62502"/><stop offset="0.13" stop-color="#d72902"/><stop offset="0.24" stop-color="#dc3402"/><stop offset="0.36" stop-color="#e34702"/><stop offset="0.47" stop-color="#ed6102"/><stop offset="0.47" stop-color="#ee6302"/><stop offset="1" stop-color="#f8d900"/></radialGradient><radialGradient id="radial-gradient-2" cx="125.11" cy="58.73" r="50.62" gradientTransform="translate(437.93 281.28) rotate(147.68)" gradientUnits="userSpaceOnUse"><stop offset="0" stop-color="#d62502"/><stop offset="1" stop-color="#f8d900"/></radialGradient><radialGradient id="radial-gradient-3" cx="130.92" cy="81.18" r="34.21" xlink:href="#radial-gradient"/><radialGradient id="radial-gradient-4" cx="123.94" cy="51.29" r="37.99" gradientTransform="matrix(-0.46, 0.89, -0.89, -0.46, 448.76, 148.59)" xlink:href="#radial-gradient"/><radialGradient id="radial-gradient-5" cx="124.45" cy="59.08" r="50.62" gradientTransform="matrix(-0.46, 0.89, -0.89, -0.46, 448.76, 148.59)" xlink:href="#radial-gradient-2"/><radialGradient id="radial-gradient-6" cx="130.26" cy="81.53" r="34.21" gradientTransform="matrix(-0.46, 0.89, -0.89, -0.46, 448.76, 148.59)" xlink:href="#radial-gradient"/><radialGradient id="radial-gradient-7" cx="123.19" cy="51.26" r="37.99" gradientTransform="matrix(0.04, 1, -1, 0.04, 391.8, 28.27)" xlink:href="#radial-gradient"/><radialGradient id="radial-gradient-8" cx="123.7" cy="59.06" r="50.62" gradientTransform="matrix(0.04, 1, -1, 0.04, 391.8, 28.27)" xlink:href="#radial-gradient-2"/><radialGradient id="radial-gradient-9" cx="129.52" cy="81.51" r="34.21" gradientTransform="matrix(0.04, 1, -1, 0.04, 391.8, 28.27)" xlink:href="#radial-gradient"/><radialGradient id="radial-gradient-10" cx="122.56" cy="50.87" r="37.99" gradientTransform="translate(282.31 -47.46) rotate(57.68)" xlink:href="#radial-gradient"/><radialGradient id="radial-gradient-11" cx="123.07" cy="58.66" r="50.62" gradientTransform="translate(282.31 -47.46) rotate(57.68)" xlink:href="#radial-gradient-2"/><radialGradient id="radial-gradient-12" cx="128.88" cy="81.11" r="34.21" gradientTransform="translate(282.31 -47.46) rotate(57.68)" xlink:href="#radial-gradient"/><radialGradient id="radial-gradient-13" cx="122.21" cy="50.21" r="37.99" gradientTransform="translate(149.62 -58.29) rotate(27.68)" xlink:href="#radial-gradient"/><radialGradient id="radial-gradient-14" cx="122.72" cy="58" r="50.62" gradientTransform="translate(149.62 -58.29) rotate(27.68)" xlink:href="#radial-gradient-2"/><radialGradient id="radial-gradient-15" cx="128.53" cy="80.45" r="34.21" gradientTransform="translate(149.62 -58.29) rotate(27.68)" xlink:href="#radial-gradient"/><radialGradient id="radial-gradient-16" cx="122.24" cy="49.46" r="37.99" gradientTransform="translate(29.3 -1.33) rotate(-2.32)" xlink:href="#radial-gradient"/><radialGradient id="radial-gradient-17" cx="122.74" cy="57.26" r="50.62" gradientTransform="translate(29.3 -1.33) rotate(-2.32)" xlink:href="#radial-gradient-2"/><radialGradient id="radial-gradient-18" cx="128.56" cy="79.71" r="34.21" gradientTransform="translate(29.3 -1.33) rotate(-2.32)" xlink:href="#radial-gradient"/><radialGradient id="radial-gradient-19" cx="122.63" cy="48.83" r="37.99" gradientTransform="translate(-46.43 108.16) rotate(-32.32)" xlink:href="#radial-gradient"/><radialGradient id="radial-gradient-20" cx="123.14" cy="56.62" r="50.62" gradientTransform="translate(-46.43 108.16) rotate(-32.32)" xlink:href="#radial-gradient-2"/><radialGradient id="radial-gradient-21" cx="128.95" cy="79.07" r="34.21" gradientTransform="translate(-46.43 108.16) rotate(-32.32)" xlink:href="#radial-gradient"/><radialGradient id="radial-gradient-22" cx="123.29" cy="48.48" r="37.99" gradientTransform="translate(-57.26 240.84) rotate(-62.32)" xlink:href="#radial-gradient"/><radialGradient id="radial-gradient-23" cx="123.8" cy="56.27" r="50.62" gradientTransform="translate(-57.26 240.84) rotate(-62.32)" xlink:href="#radial-gradient-2"/><radialGradient id="radial-gradient-24" cx="129.61" cy="78.72" r="34.21" gradientTransform="translate(-57.26 240.84) rotate(-62.32)" xlink:href="#radial-gradient"/><radialGradient id="radial-gradient-25" cx="124.04" cy="48.51" r="37.99" gradientTransform="translate(-0.3 361.17) rotate(-92.32)" xlink:href="#radial-gradient"/><radialGradient id="radial-gradient-26" cx="124.54" cy="56.3" r="50.62" gradientTransform="translate(-0.3 361.17) rotate(-92.32)" xlink:href="#radial-gradient-2"/><radialGradient id="radial-gradient-27" cx="130.36" cy="78.75" r="34.21" gradientTransform="translate(-0.3 361.17) rotate(-92.32)" xlink:href="#radial-gradient"/><radialGradient id="radial-gradient-28" cx="124.67" cy="48.9" r="37.99" gradientTransform="translate(109.19 436.9) rotate(-122.32)" xlink:href="#radial-gradient"/><radialGradient id="radial-gradient-29" cx="125.18" cy="56.69" r="50.62" gradientTransform="translate(109.19 436.9) rotate(-122.32)" xlink:href="#radial-gradient-2"/><radialGradient id="radial-gradient-30" cx="130.99" cy="79.15" r="34.21" gradientTransform="translate(109.19 436.9) rotate(-122.32)" xlink:href="#radial-gradient"/><radialGradient id="radial-gradient-31" cx="125.02" cy="49.56" r="37.99" gradientTransform="translate(241.87 447.73) rotate(-152.32)" xlink:href="#radial-gradient"/><radialGradient id="radial-gradient-32" cx="125.53" cy="57.35" r="50.62" gradientTransform="translate(241.87 447.73) rotate(-152.32)" xlink:href="#radial-gradient-2"/><radialGradient id="radial-gradient-33" cx="131.34" cy="79.8" r="34.21" gradientTransform="translate(241.87 447.73) rotate(-152.32)" xlink:href="#radial-gradient"/><radialGradient id="radial-gradient-34" cx="124.99" cy="50.31" r="37.99" gradientTransform="translate(362.2 390.77) rotate(177.68)" xlink:href="#radial-gradient"/><radialGradient id="radial-gradient-35" cx="125.5" cy="58.1" r="50.62" gradientTransform="translate(362.2 390.77) rotate(177.68)" xlink:href="#radial-gradient-2"/><radialGradient id="radial-gradient-36" cx="131.32" cy="80.55" r="34.21" gradientTransform="translate(362.2 390.77) rotate(177.68)" xlink:href="#radial-gradient"/></defs><title>flower7</title><g id="Layer_2" data-name="Layer 2"><g id="flower7"><path class="cls-1" d="M286.43,338c3.93-1.3,14.69,5.57,15.93,10.14,3.84,14.22,48.5-22.31,9.75-30.3,42.48,24.85,39.29-34.42,28.63-35.6s-24.94-2.46-26.39-15.41c0,0-19,6.46-27.38,13.75-.76.66-17.12,12.41-16.35,23,.38,5.26,3.3,14.08,6.63,21.48S284.45,338.68,286.43,338Z"/><path class="cls-2" d="M276.47,325.75h0c-3.33-7.4-6.25-16.22-6.63-21.48-.77-10.61,15.59-22.37,16.35-23,8.35-7.29,27.37-13.75,27.37-13.75-1.45-13-37.42-24.69-48.32-11.85s14.67,27.59,1.19,43.25S276.47,325.75,276.47,325.75Z"/><path class="cls-3" d="M345.93,272.74c2.76-3.1,15.51-2.53,18.86.81,10.44,10.4,30.85-43.57-6.71-31.12,49.22.29,16.83-49.45,7-45.14s-22.83,10.34-30.56-.15c0,0-13.25,15.1-16.84,25.59-.32,1-8.61,19.32-2.64,28.12,3,4.37,9.9,10.55,16.48,15.29S344.54,274.29,345.93,272.74Z"/><path class="cls-4" d="M331.17,267.09h0c-6.59-4.75-13.53-10.92-16.49-15.29-6-8.81,2.32-27.17,2.65-28.12,3.58-10.49,16.83-25.59,16.83-25.59-7.74-10.49-44.75-2.67-47.77,13.9s26.5,16.55,22.65,36.85S331.17,267.09,331.17,267.09Z"/><path class="cls-5" d="M364.81,186.45c.84-4.06,12.17-9.94,16.75-8.73,14.23,3.79,4.92-53.16-21.37-23.59,42.76-24.37-10.16-51.24-16.51-42.6s-14.6,20.37-26.55,15.15c0,0-3.92,19.71-1.78,30.59.2,1,2.19,21,11.77,25.67,4.75,2.3,13.85,4.18,21.92,5S364.39,188.49,364.81,186.45Z"/><path class="cls-6" d="M349.2,188.93h0c-8.07-.81-17.17-2.69-21.92-5-9.57-4.64-11.57-24.69-11.76-25.67-2.14-10.88,1.78-30.59,1.78-30.59-11.95-5.21-40.1,20.07-34.42,35.93s31.22,1.08,38,20.59S349.2,188.93,349.2,188.93Z"/><path class="cls-7" d="M338,102.28c-1.3-3.94,5.57-14.7,10.14-15.93,14.22-3.84-22.31-48.5-30.3-9.75,24.85-42.48-34.42-39.3-35.6-28.64s-2.46,24.95-15.41,26.4c0,0,6.46,19,13.75,27.38.66.75,12.41,17.12,23,16.35,5.26-.38,14.08-3.31,21.48-6.64S338.68,104.26,338,102.28Z"/><path class="cls-8" d="M325.75,112.24h0c-7.4,3.33-16.22,6.25-21.48,6.63-10.61.77-22.37-15.59-23-16.35-7.29-8.35-13.75-27.38-13.75-27.38-13,1.46-24.69,37.42-11.85,48.33s27.59-14.68,43.25-1.2S325.75,112.24,325.75,112.24Z"/><path class="cls-9" d="M272.74,42.78c-3.1-2.76-2.53-15.51.81-18.87C284,13.48,230-6.93,242.43,30.62c.29-49.22-49.45-16.82-45.14-7s10.34,22.83-.15,30.57c0,0,15.1,13.25,25.59,16.83,1,.33,19.32,8.62,28.12,2.65,4.37-3,10.55-9.9,15.29-16.49S274.29,44.17,272.74,42.78Z"/><path class="cls-10" d="M267.09,57.54h0C262.34,64.12,256.17,71.06,251.8,74c-8.81,6-27.17-2.33-28.12-2.65-10.49-3.59-25.59-16.83-25.59-16.83-10.49,7.73-2.67,44.75,13.9,47.77s16.55-26.5,36.85-22.66S267.09,57.54,267.09,57.54Z"/><path class="cls-11" d="M186.45,23.89c-4.06-.84-9.94-12.16-8.73-16.74,3.79-14.24-53.16-4.93-23.59,21.37C129.76-14.25,102.89,38.67,111.53,45s20.37,14.6,15.15,26.54c0,0,19.71,3.92,30.59,1.78,1-.19,21-2.19,25.67-11.76,2.3-4.75,4.18-13.85,5-21.92S188.49,24.32,186.45,23.89Z"/><path class="cls-12" d="M188.93,39.5h0c-.81,8.07-2.69,17.17-5,21.92C179.3,71,159.25,73,158.27,73.19c-10.88,2.14-30.59-1.78-30.59-1.78-5.21,11.94,20.07,40.09,35.93,34.42s1.08-31.22,20.59-38S188.93,39.5,188.93,39.5Z"/><path class="cls-13" d="M102.28,50.68c-3.94,1.3-14.7-5.56-15.93-10.14-3.84-14.22-48.5,22.32-9.75,30.31C34.12,46,37.3,105.26,48,106.45s24.95,2.45,26.4,15.41c0,0,19-6.46,27.38-13.75.75-.66,17.12-12.42,16.35-23-.38-5.26-3.31-14.08-6.64-21.48S104.26,50,102.28,50.68Z"/><path class="cls-14" d="M112.24,63h0c3.33,7.4,6.25,16.21,6.63,21.48.77,10.61-15.59,22.37-16.35,23-8.35,7.29-27.38,13.75-27.38,13.75,1.46,12.95,37.42,24.69,48.33,11.84s-14.68-27.58-1.2-43.24S112.24,63,112.24,63Z"/><path class="cls-15" d="M42.78,116c-2.76,3.09-15.51,2.53-18.87-.82-10.43-10.39-30.84,43.58,6.71,31.12-49.22-.28-16.82,49.45-7,45.15s22.83-10.34,30.57.15c0,0,13.25-15.11,16.83-25.6.33-.95,8.62-19.31,2.65-28.12-3-4.37-9.9-10.54-16.49-15.28S44.17,114.41,42.78,116Z"/><path class="cls-16" d="M57.54,121.62h0c6.58,4.74,13.52,10.92,16.49,15.28,6,8.81-2.33,27.17-2.65,28.12-3.59,10.5-16.83,25.6-16.83,25.6,7.73,10.49,44.75,2.67,47.77-13.9s-26.5-16.55-22.66-36.86S57.54,121.62,57.54,121.62Z"/><path class="cls-17" d="M23.89,202.26c-.84,4.06-12.16,9.94-16.74,8.72-14.24-3.78-4.93,53.16,21.37,23.6-42.77,24.36,10.15,51.24,16.51,42.6S59.63,256.81,71.57,262c0,0,3.92-19.7,1.78-30.58-.19-1-2.19-21-11.76-25.68-4.75-2.3-13.85-4.18-21.92-5S24.32,200.21,23.89,202.26Z"/><path class="cls-18" d="M39.5,199.77h0c8.07.82,17.17,2.69,21.92,5C71,209.41,73,229.45,73.19,230.44,75.33,241.32,71.41,261,71.41,261c11.94,5.22,40.09-20.06,34.42-35.92s-31.22-1.09-38-20.59S39.5,199.77,39.5,199.77Z"/><path class="cls-19" d="M50.68,286.43c1.3,3.93-5.56,14.69-10.14,15.93-14.22,3.84,22.32,48.5,30.31,9.75-24.86,42.48,34.41,39.29,35.6,28.63s2.45-24.94,15.41-26.39c0,0-6.46-19-13.75-27.38-.66-.76-12.42-17.12-23-16.35-5.26.38-14.08,3.3-21.48,6.63S50,284.45,50.68,286.43Z"/><path class="cls-20" d="M63,276.47h0c7.4-3.33,16.21-6.25,21.48-6.63,10.61-.77,22.37,15.59,23,16.35,7.29,8.35,13.75,27.37,13.75,27.37,12.95-1.45,24.69-37.42,11.84-48.32s-27.58,14.67-43.24,1.19S63,276.47,63,276.47Z"/><path class="cls-21" d="M116,345.93c3.09,2.76,2.53,15.51-.82,18.86-10.39,10.44,43.58,30.85,31.12-6.71-.28,49.22,49.45,16.83,45.15,7s-10.34-22.83.15-30.56c0,0-15.11-13.25-25.6-16.84-.95-.32-19.31-8.61-28.12-2.64-4.37,3-10.54,9.9-15.28,16.48S114.41,344.54,116,345.93Z"/><path class="cls-22" d="M121.62,331.17h0c4.74-6.59,10.92-13.53,15.28-16.49,8.81-6,27.17,2.32,28.12,2.65,10.5,3.58,25.6,16.83,25.6,16.83,10.49-7.74,2.67-44.75-13.9-47.77s-16.55,26.5-36.86,22.65S121.62,331.17,121.62,331.17Z"/><path class="cls-23" d="M202.26,364.81c4.06.84,9.94,12.17,8.72,16.75-3.78,14.23,53.16,4.92,23.6-21.37,24.36,42.76,51.24-10.16,42.6-16.51s-20.37-14.6-15.16-26.55c0,0-19.7-3.92-30.58-1.78-1,.2-21,2.19-25.68,11.77-2.3,4.75-4.18,13.85-5,21.92S200.21,364.39,202.26,364.81Z"/><path class="cls-24" d="M199.77,349.2h0c.82-8.07,2.69-17.17,5-21.92,4.65-9.57,24.69-11.57,25.68-11.76,10.88-2.14,30.58,1.78,30.58,1.78,5.22-11.95-20.06-40.1-35.92-34.42s-1.09,31.22-20.59,38S199.77,349.2,199.77,349.2Z"/></g></g></svg>