<svg xmlns="http://www.w3.org/2000/svg" xmlns:xlink="http://www.w3.org/1999/xlink" viewBox="0 0 109.56 114.97"><defs><style>.cls-1,.cls-3,.cls-5,.cls-7,.cls-9{stroke:#ee6302;}.cls-1,.cls-10,.cls-2,.cls-3,.cls-4,.cls-5,.cls-6,.cls-7,.cls-8,.cls-9{stroke-miterlimit:10;}.cls-1{fill:url(#radial-gradient);}.cls-2{fill:url(#radial-gradient-2);stroke:url(#radial-gradient-3);}.cls-3{fill:url(#radial-gradient-4);}.cls-4{fill:url(#radial-gradient-5);stroke:url(#radial-gradient-6);}.cls-5{fill:url(#radial-gradient-7);}.cls-6{fill:url(#radial-gradient-8);stroke:url(#radial-gradient-9);}.cls-7{fill:url(#radial-gradient-10);}.cls-8{fill:url(#radial-gradient-11);stroke:url(#radial-gradient-12);}.cls-9{fill:url(#radial-gradient-13);}.cls-10{fill:url(#radial-gradient-14);stroke:url(#radial-gradient-15);}</style><radialGradient id="radial-gradient" cx="84.53" cy="22.27" r="18.9" gradientUnits="userSpaceOnUse"><stop offset="0" stop-color="#d62502"/><stop offset="0.13" stop-color="#d72902"/><stop offset="0.24" stop-color="#dc3402"/><stop offset="0.36" stop-color="#e34702"/><stop offset="0.47" stop-color="#ed6102"/><stop offset="0.47" stop-color="#ee6302"/><stop offset="1" stop-color="#f8d900"/></radialGradient><radialGradient id="radial-gradient-2" cx="84.78" cy="26.14" r="25.18" gradientUnits="userSpaceOnUse"><stop offset="0" stop-color="#d62502"/><stop offset="1" stop-color="#f8d900"/></radialGradient><radialGradient id="radial-gradient-3" cx="87.67" cy="37.08" r="17.39" xlink:href="#radial-gradient"/><radialGradient id="radial-gradient-4" cx="84.53" cy="22.27" r="18.9" gradientTransform="translate(-8.57 93.05) rotate(-72)" xlink:href="#radial-gradient"/><radialGradient id="radial-gradient-5" cx="84.78" cy="26.14" r="25.18" gradientTransform="translate(-8.57 93.05) rotate(-72)" xlink:href="#radial-gradient-2"/><radialGradient id="radial-gradient-6" cx="87.67" cy="37.08" r="17.39" gradientTransform="translate(-8.57 93.05) rotate(-72)" xlink:href="#radial-gradient"/><radialGradient id="radial-gradient-7" cx="84.53" cy="22.27" r="18.9" gradientTransform="matrix(-0.81, -0.59, 0.59, -0.81, 77.28, 129.95)" xlink:href="#radial-gradient"/><radialGradient id="radial-gradient-8" cx="84.78" cy="26.14" r="25.18" gradientTransform="matrix(-0.81, -0.59, 0.59, -0.81, 77.28, 129.95)" xlink:href="#radial-gradient-2"/><radialGradient id="radial-gradient-9" cx="87.67" cy="37.08" r="17.39" gradientTransform="matrix(-0.81, -0.59, 0.59, -0.81, 77.28, 129.95)" xlink:href="#radial-gradient"/><radialGradient id="radial-gradient-10" cx="84.53" cy="22.27" r="18.9" gradientTransform="matrix(-0.81, 0.59, -0.59, -0.81, 138.9, 59.71)" xlink:href="#radial-gradient"/><radialGradient id="radial-gradient-11" cx="84.78" cy="26.14" r="25.18" gradientTransform="matrix(-0.81, 0.59, -0.59, -0.81, 138.9, 59.71)" xlink:href="#radial-gradient-2"/><radialGradient id="radial-gradient-12" cx="87.67" cy="37.08" r="17.39" gradientTransform="matrix(-0.81, 0.59, -0.59, -0.81, 138.9, 59.71)" xlink:href="#radial-gradient"/><radialGradient id="radial-gradient-13" cx="72.72" cy="28.73" r="18.9" gradientTransform="translate(91.14 -20.6) rotate(72)" xlink:href="#radial-gradient"/><radialGradient id="radial-gradient-14" cx="71.91" cy="31.03" r="25.18" gradientTransform="translate(91.14 -20.6) rotate(72)" xlink:href="#radial-gradient-2"/><radialGradient id="radial-gradient-15" cx="74.8" cy="41.97" r="17.39" gradientTransform="translate(91.14 -20.6) rotate(72)" xlink:href="#radial-gradient"/></defs><title>flower2</title><g id="Layer_2" data-name="Layer 2"><g id="flower2"><path class="cls-1" d="M101.33,13.36c-2-.5-4.7-6.25-4-8.5C99.49-2.14,71,1.34,85.17,15,73.92-6.74,59.49,19,63.66,22.36s9.83,7.66,7,13.5c0,0,9.72,2.34,15.17,1.5.49-.08,10.5-.67,13-5.34,1.24-2.31,2.35-6.8,2.92-10.79S102.34,13.61,101.33,13.36Z"/><path class="cls-2" d="M102.25,21.17h0c-.57,4-1.68,8.48-2.92,10.79-2.5,4.67-12.51,5.26-13,5.33-5.45.85-15.17-1.5-15.17-1.5-2.83,5.84,9.17,20.34,17.17,17.84s1.16-15.5,11-18.5S102.25,21.17,102.25,21.17Z"/><path class="cls-3" d="M35.45.81c-1.1,1.75-7.4,2.53-9.32,1.18-6-4.23-11.48,24,5.89,14.7-24.16,4-4.11,25.66.35,22.72s10.33-7,15-2.48c0,0,5.23-8.52,6.11-14,.08-.5,2.61-10.2-1-14-1.82-1.89-5.74-4.34-9.37-6.11S36-.07,35.45.81Z"/><path class="cls-4" d="M43.16,2.34h0c3.62,1.78,7.54,4.23,9.36,6.12,3.67,3.82,1.14,13.52,1.06,14-.88,5.45-6.12,14-6.12,14,4.68,4.5,22.17-2.43,22.27-10.81s-14.38-5.9-14.2-16.18S43.16,2.34,43.16,2.34Z"/><path class="cls-5" d="M3.15,59.59c1.33,1.58.13,7.81-1.76,9.23-5.86,4.39,19.23,18.32,15.81-1.07C13.51,92,40.33,79.59,38.92,74.45s-3.45-12,2.27-15c0,0-6.48-7.61-11.39-10.13-.45-.23-8.89-5.63-13.65-3.32-2.37,1.14-5.91,4.11-8.71,7S2.49,58.79,3.15,59.59Z"/><path class="cls-6" d="M7,52.73H7c2.8-2.9,6.34-5.87,8.71-7,4.76-2.3,13.2,3.1,13.65,3.33,4.91,2.52,11.39,10.13,11.39,10.13,5.72-3.06,4.53-21.84-3.41-24.52S27.29,46.5,17.57,43.15,7,52.73,7,52.73Z"/><path class="cls-7" d="M49.08,108.47c1.91-.78,7.47,2.29,8.23,4.52,2.36,6.94,23.37-12.63,3.87-15.36,21.89,11,18.41-18.34,13.08-18.59s-12.46-.42-13.6-6.8c0,0-9.24,3.81-13.15,7.7-.35.35-8.1,6.71-7.38,12,.36,2.6,2.09,6.89,4,10.46S48.11,108.85,49.08,108.47Z"/><path class="cls-8" d="M43.74,102.69h0c-1.89-3.57-3.62-7.85-4-10.45-.72-5.25,7-11.61,7.38-12,3.92-3.89,13.15-7.7,13.15-7.7-1.13-6.38-19.36-11.06-24.37-4.34s8.17,13.23,2,21.44S43.74,102.69,43.74,102.69Z"/><path class="cls-9" d="M100,70.66c-.14-2.06,4.49-6.4,6.85-6.43,7.33-.1-4.79-26.13-13.41-8.43C110.6,38.38,81.64,32.63,79.75,37.62S75.5,49.34,69.08,48.45c0,0,.77,10,3.26,14.89.22.44,3.88,9.78,9.09,10.71,2.58.46,7.19.14,11.17-.56S100,71.7,100,70.66Z"/><path class="cls-10" d="M94,72.45h0c-4,.7-8.59,1-11.17.56C77.6,72.07,74,62.74,73.73,62.29c-2.49-4.92-3.26-14.88-3.26-14.88C64,46.51,54,62.41,58.81,69.24s15.1-3.68,21,4.75S94,72.45,94,72.45Z"/></g></g></svg>