<svg xmlns="http://www.w3.org/2000/svg" xmlns:xlink="http://www.w3.org/1999/xlink" viewBox="0 0 269.54 272.32"><defs><style>.cls-1,.cls-11,.cls-13,.cls-15,.cls-17,.cls-19,.cls-3,.cls-5,.cls-7,.cls-9{stroke:#ee6302;}.cls-1,.cls-10,.cls-11,.cls-12,.cls-13,.cls-14,.cls-15,.cls-16,.cls-17,.cls-18,.cls-19,.cls-2,.cls-20,.cls-3,.cls-4,.cls-5,.cls-6,.cls-7,.cls-8,.cls-9{stroke-miterlimit:10;}.cls-1{fill:url(#radial-gradient);}.cls-2{fill:url(#radial-gradient-2);stroke:url(#radial-gradient-3);}.cls-3{fill:url(#radial-gradient-4);}.cls-4{fill:url(#radial-gradient-5);stroke:url(#radial-gradient-6);}.cls-5{fill:url(#radial-gradient-7);}.cls-6{fill:url(#radial-gradient-8);stroke:url(#radial-gradient-9);}.cls-7{fill:url(#radial-gradient-10);}.cls-8{fill:url(#radial-gradient-11);stroke:url(#radial-gradient-12);}.cls-9{fill:url(#radial-gradient-13);}.cls-10{fill:url(#radial-gradient-14);stroke:url(#radial-gradient-15);}.cls-11{fill:url(#radial-gradient-16);}.cls-12{fill:url(#radial-gradient-17);stroke:url(#radial-gradient-18);}.cls-13{fill:url(#radial-gradient-19);}.cls-14{fill:url(#radial-gradient-20);stroke:url(#radial-gradient-21);}.cls-15{fill:url(#radial-gradient-22);}.cls-16{fill:url(#radial-gradient-23);stroke:url(#radial-gradient-24);}.cls-17{fill:url(#radial-gradient-25);}.cls-18{fill:url(#radial-gradient-26);stroke:url(#radial-gradient-27);}.cls-19{fill:url(#radial-gradient-28);}.cls-20{fill:url(#radial-gradient-29);stroke:url(#radial-gradient-30);}</style><radialGradient id="radial-gradient" cx="92.06" cy="43.17" r="32.32" gradientTransform="matrix(0.91, 0.42, -0.42, 0.91, 108.28, -34.57)" gradientUnits="userSpaceOnUse"><stop offset="0" stop-color="#d62502"/><stop offset="0.13" stop-color="#d72902"/><stop offset="0.24" stop-color="#dc3402"/><stop offset="0.36" stop-color="#e34702"/><stop offset="0.47" stop-color="#ed6102"/><stop offset="0.47" stop-color="#ee6302"/><stop offset="1" stop-color="#f8d900"/></radialGradient><radialGradient id="radial-gradient-2" cx="92.5" cy="49.8" r="43.06" gradientTransform="matrix(0.91, 0.42, -0.42, 0.91, 108.28, -34.57)" gradientUnits="userSpaceOnUse"><stop offset="0" stop-color="#d62502"/><stop offset="1" stop-color="#f8d900"/></radialGradient><radialGradient id="radial-gradient-3" cx="97.44" cy="68.83" r="29.21" xlink:href="#radial-gradient"/><radialGradient id="radial-gradient-4" cx="92.06" cy="43.17" r="32.32" gradientTransform="matrix(0.48, 0.87, -0.87, 0.48, 213.7, -17.53)" xlink:href="#radial-gradient"/><radialGradient id="radial-gradient-5" cx="92.5" cy="49.8" r="43.06" gradientTransform="matrix(0.48, 0.87, -0.87, 0.48, 213.7, -17.53)" xlink:href="#radial-gradient-2"/><radialGradient id="radial-gradient-6" cx="97.44" cy="68.83" r="29.21" gradientTransform="matrix(0.48, 0.87, -0.87, 0.48, 213.7, -17.53)" xlink:href="#radial-gradient"/><radialGradient id="radial-gradient-7" cx="92.06" cy="43.17" r="32.32" gradientTransform="translate(288.96 58.21) rotate(97.02)" xlink:href="#radial-gradient"/><radialGradient id="radial-gradient-8" cx="92.5" cy="49.8" r="43.06" gradientTransform="translate(288.96 58.21) rotate(97.02)" xlink:href="#radial-gradient-2"/><radialGradient id="radial-gradient-9" cx="97.44" cy="68.83" r="29.21" gradientTransform="translate(288.96 58.21) rotate(97.02)" xlink:href="#radial-gradient"/><radialGradient id="radial-gradient-10" cx="92.06" cy="43.17" r="32.32" gradientTransform="translate(305.33 163.73) rotate(133.02)" xlink:href="#radial-gradient"/><radialGradient id="radial-gradient-11" cx="92.5" cy="49.8" r="43.06" gradientTransform="translate(305.33 163.73) rotate(133.02)" xlink:href="#radial-gradient-2"/><radialGradient id="radial-gradient-12" cx="97.44" cy="68.83" r="29.21" gradientTransform="translate(305.33 163.73) rotate(133.02)" xlink:href="#radial-gradient"/><radialGradient id="radial-gradient-13" cx="92.06" cy="43.17" r="32.32" gradientTransform="translate(256.55 258.72) rotate(169.02)" xlink:href="#radial-gradient"/><radialGradient id="radial-gradient-14" cx="92.5" cy="49.8" r="43.06" gradientTransform="translate(256.55 258.72) rotate(169.02)" xlink:href="#radial-gradient-2"/><radialGradient id="radial-gradient-15" cx="97.44" cy="68.83" r="29.21" gradientTransform="translate(256.55 258.72) rotate(169.02)" xlink:href="#radial-gradient"/><radialGradient id="radial-gradient-16" cx="92.06" cy="43.17" r="32.32" gradientTransform="matrix(-0.91, -0.42, 0.42, -0.91, 161.25, 306.9)" xlink:href="#radial-gradient"/><radialGradient id="radial-gradient-17" cx="92.5" cy="49.8" r="43.06" gradientTransform="matrix(-0.91, -0.42, 0.42, -0.91, 161.25, 306.9)" xlink:href="#radial-gradient-2"/><radialGradient id="radial-gradient-18" cx="97.44" cy="68.83" r="29.21" gradientTransform="matrix(-0.91, -0.42, 0.42, -0.91, 161.25, 306.9)" xlink:href="#radial-gradient"/><radialGradient id="radial-gradient-19" cx="92.06" cy="43.17" r="32.32" gradientTransform="matrix(-0.48, -0.87, 0.87, -0.48, 55.84, 289.86)" xlink:href="#radial-gradient"/><radialGradient id="radial-gradient-20" cx="92.5" cy="49.8" r="43.06" gradientTransform="matrix(-0.48, -0.87, 0.87, -0.48, 55.84, 289.86)" xlink:href="#radial-gradient-2"/><radialGradient id="radial-gradient-21" cx="97.44" cy="68.83" r="29.21" gradientTransform="matrix(-0.48, -0.87, 0.87, -0.48, 55.84, 289.86)" xlink:href="#radial-gradient"/><radialGradient id="radial-gradient-22" cx="92.06" cy="43.17" r="32.32" gradientTransform="translate(-19.43 214.11) rotate(-82.98)" xlink:href="#radial-gradient"/><radialGradient id="radial-gradient-23" cx="92.5" cy="49.8" r="43.06" gradientTransform="translate(-19.43 214.11) rotate(-82.98)" xlink:href="#radial-gradient-2"/><radialGradient id="radial-gradient-24" cx="97.44" cy="68.83" r="29.21" gradientTransform="translate(-19.43 214.11) rotate(-82.98)" xlink:href="#radial-gradient"/><radialGradient id="radial-gradient-25" cx="92.06" cy="43.17" r="32.32" gradientTransform="translate(-35.8 108.59) rotate(-46.98)" xlink:href="#radial-gradient"/><radialGradient id="radial-gradient-26" cx="92.5" cy="49.8" r="43.06" gradientTransform="translate(-35.8 108.59) rotate(-46.98)" xlink:href="#radial-gradient-2"/><radialGradient id="radial-gradient-27" cx="97.44" cy="68.83" r="29.21" gradientTransform="translate(-35.8 108.59) rotate(-46.98)" xlink:href="#radial-gradient"/><radialGradient id="radial-gradient-28" cx="92.06" cy="43.17" r="32.32" gradientTransform="translate(12.99 13.6) rotate(-10.98)" xlink:href="#radial-gradient"/><radialGradient id="radial-gradient-29" cx="92.5" cy="49.8" r="43.06" gradientTransform="translate(12.99 13.6) rotate(-10.98)" xlink:href="#radial-gradient-2"/><radialGradient id="radial-gradient-30" cx="97.44" cy="68.83" r="29.21" gradientTransform="translate(12.99 13.6) rotate(-10.98)" xlink:href="#radial-gradient"/></defs><title>flower5</title><g id="Layer_2" data-name="Layer 2"><g id="flower5"><path class="cls-1" d="M205.92,41.83c-2.73-2.23-2.75-13.08,0-16.07,8.42-9.28-38.24-24.48-26.18,6.93C178-9.14,137,20.35,141.06,28.53s9.69,19,1.08,26c0,0,13.36,10.66,22.41,13.29.82.24,16.75,6.56,24,1.14,3.6-2.69,8.57-8.83,12.34-14.61S207.3,42.94,205.92,41.83Z"/><path class="cls-2" d="M201.71,54.59h0c-3.77,5.78-8.74,11.93-12.34,14.62-7.25,5.42-23.18-.9-24-1.14C156.32,65.44,143,54.78,143,54.78c-8.61,7-.5,38.13,13.7,40s13-23.17,30.42-20.71S201.71,54.59,201.71,54.59Z"/><path class="cls-3" d="M247.78,101.67c-.91-3.41,5.46-12.21,9.4-13,12.27-2.56-16.55-42.29-25.25-9.78C255.14,44,204.65,43.79,203.12,52.78s-3.32,21.06-14.4,21.66c0,0,4.55,16.47,10.33,23.93.52.67,9.69,15.15,18.74,15,4.49-.06,12.12-2.11,18.57-4.57S248.24,103.38,247.78,101.67Z"/><path class="cls-4" d="M236.87,109.52h0c-6.45,2.46-14.08,4.51-18.57,4.57-9.05.12-18.22-14.35-18.75-15-5.78-7.45-10.32-23.93-10.32-23.93-11.07.6-22.82,30.56-12.45,40.45s24.15-11.09,36.78,1.13S236.87,109.52,236.87,109.52Z"/><path class="cls-5" d="M246.48,174.68c1.26-3.29,11.58-6.66,15.26-5,11.42,5.14,11.47-43.94-14.69-22.76,39.26-14.54-1.45-44.4-8-38S224,124,214.7,117.94c0,0-6,16-5.71,25.43,0,.85-1.07,17.95,6.33,23.17,3.67,2.59,11.05,5.42,17.71,7.22S245.84,176.34,246.48,174.68Z"/><path class="cls-6" d="M233,174.62h0c-6.66-1.8-14-4.63-17.71-7.22-7.4-5.22-6.31-22.32-6.33-23.17-.3-9.43,5.71-25.43,5.71-25.43-9.31-6-36.42,11.31-33.85,25.41s26.06,5.22,29.1,22.53S233,174.62,233,174.62Z"/><path class="cls-7" d="M202.5,233c3-1.92,13.29,1.41,15.29,4.91,6.22,10.88,35.11-28.81,1.5-27,40.31,11.31,24.92-36.78,15.9-35.46s-21.06,3.35-25.05-7c0,0-14.26,9.41-19.56,17.21-.48.71-11.42,13.91-8.5,22.48,1.45,4.25,5.75,10.87,10.09,16.24S201,234,202.5,233Z"/><path class="cls-8" d="M191.66,225h0c-4.33-5.37-8.64-12-10.09-16.25-2.91-8.57,8-21.76,8.5-22.47,5.3-7.8,19.57-17.21,19.57-17.21-4-10.35-36.11-12.26-42.32.66s18,19.54,10.29,35.33S191.66,225,191.66,225Z"/><path class="cls-9" d="M132.65,254.31c3.52.18,9.92,8.95,9.48,13-1.35,12.46,45.34-2.67,17.11-21,26,32.85,41.78-15.1,33.7-19.34s-19-9.67-16.14-20.38c0,0-17.07-.77-26,2.42-.8.29-17.41,4.54-20.08,13.19-1.33,4.29-1.74,12.18-1.39,19.07S130.88,254.21,132.65,254.31Z"/><path class="cls-10" d="M128.56,241.5h0c-.35-6.89.06-14.79,1.39-19.07,2.67-8.65,19.28-12.9,20.08-13.19,8.88-3.19,25.95-2.42,25.95-2.42,2.85-10.72-22-31.15-34.63-24.35s3.1,26.4-12.43,34.64S128.56,241.5,128.56,241.5Z"/><path class="cls-11" d="M63.61,230.5c2.74,2.22,2.76,13.07,0,16.06-8.42,9.28,38.25,24.49,26.18-6.93,1.71,41.83,42.69,12.34,38.64,4.16s-9.69-19-1.08-26c0,0-13.36-10.66-22.42-13.29-.82-.24-16.75-6.56-24-1.14-3.59,2.69-8.56,8.83-12.33,14.62S62.23,229.38,63.61,230.5Z"/><path class="cls-12" d="M67.83,217.73h0c3.77-5.78,8.74-11.92,12.33-14.61,7.25-5.43,23.18.9,24,1.13,9.06,2.64,22.42,13.3,22.42,13.3,8.61-7,.5-38.14-13.71-40.05s-13,23.17-30.42,20.71S67.83,217.73,67.83,217.73Z"/><path class="cls-13" d="M21.75,170.66c.91,3.4-5.45,12.2-9.4,13C.09,186.24,28.9,226,37.61,193.46c-23.22,34.85,27.27,35.07,28.81,26.08s3.32-21.06,14.39-21.66c0,0-4.54-16.47-10.32-23.92-.52-.68-9.7-15.16-18.75-15-4.49.06-12.12,2.11-18.57,4.57S21.29,168.94,21.75,170.66Z"/><path class="cls-14" d="M32.67,162.81h0c6.44-2.47,14.08-4.51,18.57-4.58,9-.12,18.22,14.35,18.74,15,5.78,7.45,10.32,23.93,10.32,23.93,11.08-.6,22.82-30.56,12.46-40.45S68.61,167.83,56,155.61,32.67,162.81,32.67,162.81Z"/><path class="cls-15" d="M23.06,97.64c-1.27,3.29-11.58,6.66-15.26,5-11.43-5.14-11.47,43.94,14.68,22.76-39.26,14.55,1.46,44.41,8,38s15.07-15.08,24.38-9.06c0,0,6-16,5.71-25.42,0-.86,1.06-18-6.33-23.18-3.67-2.59-11-5.42-17.71-7.21S23.7,96,23.06,97.64Z"/><path class="cls-16" d="M36.51,97.7h0c6.66,1.8,14,4.63,17.71,7.22,7.39,5.22,6.3,22.32,6.33,23.18.29,9.42-5.71,25.42-5.71,25.42,9.3,6,36.42-11.31,33.85-25.41s-26.06-5.21-29.1-22.53S36.51,97.7,36.51,97.7Z"/><path class="cls-17" d="M67,39.34c-3,1.91-13.29-1.42-15.29-4.92-6.23-10.87-35.11,28.81-1.5,27C9.93,50.15,25.32,98.24,34.35,96.92s21-3.35,25,7c0,0,14.27-9.41,19.57-17.21.48-.71,11.41-13.9,8.5-22.47C86,60,81.7,53.36,77.37,48S68.53,38.37,67,39.34Z"/><path class="cls-18" d="M77.88,47.29h0c4.33,5.37,8.64,12,10.08,16.25C90.88,72.11,80,85.3,79.47,86c-5.31,7.8-19.57,17.21-19.57,17.21,4,10.35,36.11,12.26,42.32-.66S84.2,83,91.92,67.23,77.88,47.29,77.88,47.29Z"/><path class="cls-19" d="M136.89,18c-3.52-.19-9.92-9-9.49-13,1.36-12.45-45.33,2.67-17.1,21-26-32.84-41.79,15.1-33.71,19.34s19,9.67,16.15,20.38c0,0,17.07.77,25.94-2.42.81-.29,17.41-4.54,20.09-13.19,1.33-4.28,1.74-12.18,1.39-19.07S138.66,18.11,136.89,18Z"/><path class="cls-20" d="M141,30.82h0c.35,6.9-.07,14.79-1.39,19.08-2.68,8.64-19.28,12.89-20.09,13.18-8.87,3.2-25.94,2.43-25.94,2.43-2.86,10.71,22,31.14,34.62,24.34s-3.09-26.4,12.44-34.64S141,30.82,141,30.82Z"/></g></g></svg>