<svg xmlns="http://www.w3.org/2000/svg" xmlns:xlink="http://www.w3.org/1999/xlink" viewBox="0 0 191.32 191.32"><defs><style>.cls-1,.cls-11,.cls-13,.cls-15,.cls-3,.cls-5,.cls-7,.cls-9{stroke:#ee6302;}.cls-1,.cls-10,.cls-11,.cls-12,.cls-13,.cls-14,.cls-15,.cls-16,.cls-2,.cls-3,.cls-4,.cls-5,.cls-6,.cls-7,.cls-8,.cls-9{stroke-miterlimit:10;}.cls-1{fill:url(#radial-gradient);}.cls-2{fill:url(#radial-gradient-2);stroke:url(#radial-gradient-3);}.cls-3{fill:url(#radial-gradient-4);}.cls-4{fill:url(#radial-gradient-5);stroke:url(#radial-gradient-6);}.cls-5{fill:url(#radial-gradient-7);}.cls-6{fill:url(#radial-gradient-8);stroke:url(#radial-gradient-9);}.cls-7{fill:url(#radial-gradient-10);}.cls-8{fill:url(#radial-gradient-11);stroke:url(#radial-gradient-12);}.cls-9{fill:url(#radial-gradient-13);}.cls-10{fill:url(#radial-gradient-14);stroke:url(#radial-gradient-15);}.cls-11{fill:url(#radial-gradient-16);}.cls-12{fill:url(#radial-gradient-17);stroke:url(#radial-gradient-18);}.cls-13{fill:url(#radial-gradient-19);}.cls-14{fill:url(#radial-gradient-20);stroke:url(#radial-gradient-21);}.cls-15{fill:url(#radial-gradient-22);}.cls-16{fill:url(#radial-gradient-23);stroke:url(#radial-gradient-24);}</style><radialGradient id="radial-gradient" cx="99.84" cy="27.72" r="24.9" gradientTransform="matrix(-0.94, -0.34, -0.34, 0.94, 220.31, 39.03)" gradientUnits="userSpaceOnUse"><stop offset="0" stop-color="#d62502"/><stop offset="0.13" stop-color="#d72902"/><stop offset="0.24" stop-color="#dc3402"/><stop offset="0.36" stop-color="#e34702"/><stop offset="0.47" stop-color="#ed6102"/><stop offset="0.47" stop-color="#ee6302"/><stop offset="1" stop-color="#f8d900"/></radialGradient><radialGradient id="radial-gradient-2" cx="100.17" cy="32.83" r="33.17" gradientTransform="matrix(-0.94, -0.34, -0.34, 0.94, 220.31, 39.03)" gradientUnits="userSpaceOnUse"><stop offset="0" stop-color="#d62502"/><stop offset="1" stop-color="#f8d900"/></radialGradient><radialGradient id="radial-gradient-3" cx="103.98" cy="47.38" r="22.67" xlink:href="#radial-gradient"/><radialGradient id="radial-gradient-4" cx="99.4" cy="28.06" r="24.9" gradientTransform="matrix(-0.42, -0.91, -0.91, 0.42, 223.97, 143.21)" xlink:href="#radial-gradient"/><radialGradient id="radial-gradient-5" cx="99.73" cy="33.17" r="33.17" gradientTransform="matrix(-0.42, -0.91, -0.91, 0.42, 223.97, 143.21)" xlink:href="#radial-gradient-2"/><radialGradient id="radial-gradient-6" cx="103.54" cy="47.72" r="22.67" gradientTransform="matrix(-0.42, -0.91, -0.91, 0.42, 223.97, 143.21)" xlink:href="#radial-gradient"/><radialGradient id="radial-gradient-7" cx="98.84" cy="27.99" r="24.9" gradientTransform="matrix(0.34, -0.94, -0.94, -0.34, 152.89, 219.47)" xlink:href="#radial-gradient"/><radialGradient id="radial-gradient-8" cx="99.18" cy="33.1" r="33.17" gradientTransform="matrix(0.34, -0.94, -0.94, -0.34, 152.89, 219.47)" xlink:href="#radial-gradient-2"/><radialGradient id="radial-gradient-9" cx="102.99" cy="47.65" r="22.67" gradientTransform="matrix(0.34, -0.94, -0.94, -0.34, 152.89, 219.47)" xlink:href="#radial-gradient"/><radialGradient id="radial-gradient-10" cx="98.5" cy="27.55" r="24.9" gradientTransform="matrix(0.91, -0.42, -0.42, -0.91, 48.7, 223.13)" xlink:href="#radial-gradient"/><radialGradient id="radial-gradient-11" cx="98.83" cy="32.66" r="33.17" gradientTransform="matrix(0.91, -0.42, -0.42, -0.91, 48.7, 223.13)" xlink:href="#radial-gradient-2"/><radialGradient id="radial-gradient-12" cx="102.64" cy="47.21" r="22.67" gradientTransform="matrix(0.91, -0.42, -0.42, -0.91, 48.7, 223.13)" xlink:href="#radial-gradient"/><radialGradient id="radial-gradient-13" cx="98.57" cy="27" r="24.9" gradientTransform="matrix(0.94, 0.34, 0.34, -0.94, -27.55, 152.05)" xlink:href="#radial-gradient"/><radialGradient id="radial-gradient-14" cx="98.9" cy="32.11" r="33.17" gradientTransform="matrix(0.94, 0.34, 0.34, -0.94, -27.55, 152.05)" xlink:href="#radial-gradient-2"/><radialGradient id="radial-gradient-15" cx="102.71" cy="46.66" r="22.67" gradientTransform="matrix(0.94, 0.34, 0.34, -0.94, -27.55, 152.05)" xlink:href="#radial-gradient"/><radialGradient id="radial-gradient-16" cx="99.01" cy="26.65" r="24.9" gradientTransform="matrix(0.42, 0.91, 0.91, -0.42, -31.21, 47.86)" xlink:href="#radial-gradient"/><radialGradient id="radial-gradient-17" cx="99.34" cy="31.76" r="33.17" gradientTransform="matrix(0.42, 0.91, 0.91, -0.42, -31.21, 47.86)" xlink:href="#radial-gradient-2"/><radialGradient id="radial-gradient-18" cx="103.15" cy="46.32" r="22.67" gradientTransform="matrix(0.42, 0.91, 0.91, -0.42, -31.21, 47.86)" xlink:href="#radial-gradient"/><radialGradient id="radial-gradient-19" cx="99.57" cy="26.72" r="24.9" gradientTransform="matrix(-0.34, 0.94, 0.94, 0.34, 39.87, -28.39)" xlink:href="#radial-gradient"/><radialGradient id="radial-gradient-20" cx="99.9" cy="31.83" r="33.17" gradientTransform="matrix(-0.34, 0.94, 0.94, 0.34, 39.87, -28.39)" xlink:href="#radial-gradient-2"/><radialGradient id="radial-gradient-21" cx="103.71" cy="46.38" r="22.67" gradientTransform="matrix(-0.34, 0.94, 0.94, 0.34, 39.87, -28.39)" xlink:href="#radial-gradient"/><radialGradient id="radial-gradient-22" cx="99.85" cy="28.99" r="24.3" gradientTransform="matrix(-0.91, 0.42, 0.42, 0.91, 144.05, -32.05)" xlink:href="#radial-gradient"/><radialGradient id="radial-gradient-23" cx="100.18" cy="33.98" r="32.38" gradientTransform="matrix(-0.91, 0.42, 0.42, 0.91, 144.05, -32.05)" xlink:href="#radial-gradient-2"/><radialGradient id="radial-gradient-24" cx="103.9" cy="48.17" r="22.15" gradientTransform="matrix(-0.91, 0.42, 0.42, 0.91, 144.05, -32.05)" xlink:href="#radial-gradient"/></defs><title>flower3</title><g id="Layer_2" data-name="Layer 2"><g id="flower3"><path class="cls-1" d="M100.3,12c2.7.29,8.64-5.6,8.8-8.7.5-9.64,34.15,7.6,10.43,18.07C143.31-.39,149.46,38,142.79,40.25s-15.64,5-14.78,13.51c0,0-13.08-1.51-19.43-5-.58-.32-12.69-5.59-13.66-12.5-.48-3.42.17-9.47,1.28-14.67S98.94,11.88,100.3,12Z"/><path class="cls-2" d="M95.61,21.26h0c-1.11,5.2-1.76,11.26-1.28,14.68,1,6.9,13.08,12.17,13.66,12.49,6.35,3.52,19.43,5,19.43,5,.86,8.5-20.56,21-29.32,14.26S103.69,48,92.89,39.86,95.61,21.26,95.61,21.26Z"/><path class="cls-3" d="M158.08,39.8c1.7,2.12,10.06,2.16,12.37.08,7.17-6.47,18.78,29.52-5.4,20.15,32.22,1.41,9.41,32.91,3.12,29.77s-14.61-7.5-20-.89c0,0-8.18-10.31-10.19-17.3-.18-.63-5-12.91-.82-18.49,2.08-2.76,6.82-6.58,11.28-9.47S157.22,38.74,158.08,39.8Z"/><path class="cls-4" d="M148.23,43h0c-4.46,2.89-9.2,6.71-11.28,9.47-4.2,5.57.64,17.86.82,18.49,2,7,10.19,17.3,10.19,17.3-5.41,6.62-29.38.3-30.82-10.65s17.88-10,16-23.38S148.23,43,148.23,43Z"/><path class="cls-5" d="M179.29,100.3c-.29,2.7,5.6,8.64,8.7,8.8,9.64.5-7.6,34.15-18.07,10.43,21.79,23.78-16.62,29.93-18.85,23.26s-5-15.64-13.52-14.78c0,0,1.51-13.08,5-19.43.32-.58,5.59-12.69,12.49-13.66,3.43-.48,9.48.17,14.68,1.28S179.44,98.94,179.29,100.3Z"/><path class="cls-6" d="M170.05,95.61h0c-5.2-1.11-11.25-1.76-14.67-1.28-6.91,1-12.18,13.08-12.5,13.66-3.52,6.35-5,19.43-5,19.43-8.5.86-21-20.56-14.27-29.32s19.7,5.59,27.87-5.21S170.05,95.61,170.05,95.61Z"/><path class="cls-7" d="M151.51,158.08c-2.11,1.7-2.15,10.06-.07,12.37,6.46,7.17-29.52,18.78-20.15-5.4-1.41,32.22-32.91,9.41-29.78,3.12s7.51-14.61.89-20c0,0,10.32-8.18,17.3-10.19.63-.18,12.92-5,18.49-.82,2.76,2.08,6.58,6.82,9.47,11.28S152.58,157.22,151.51,158.08Z"/><path class="cls-8" d="M148.29,148.23h0c-2.89-4.46-6.7-9.2-9.47-11.28-5.57-4.2-17.85.64-18.49.82-7,2-17.29,10.19-17.29,10.19-6.62-5.41-.3-29.38,10.64-30.82s10,17.88,23.39,16S148.29,148.23,148.29,148.23Z"/><path class="cls-9" d="M91,179.29c-2.7-.29-8.65,5.6-8.81,8.7-.49,9.64-34.15-7.6-10.43-18.07C48,191.71,41.86,153.3,48.52,151.07s15.64-5,14.78-13.52c0,0,13.08,1.51,19.44,5,.58.32,12.68,5.59,13.66,12.49.48,3.43-.18,9.48-1.29,14.68S92.38,179.44,91,179.29Z"/><path class="cls-10" d="M95.7,170.05h0c1.11-5.2,1.77-11.25,1.29-14.67-1-6.91-13.08-12.18-13.66-12.5-6.36-3.52-19.44-5-19.44-5-.85-8.5,20.56-21,29.32-14.27s-5.59,19.7,5.21,27.87S95.7,170.05,95.7,170.05Z"/><path class="cls-11" d="M33.24,151.51c-1.7-2.11-10.07-2.15-12.37-.07-7.17,6.46-18.78-29.52,5.4-20.15-32.23-1.41-9.42-32.91-3.12-29.78s14.6,7.51,20,.89c0,0,8.18,10.32,10.18,17.3.19.63,5,12.92.83,18.49-2.08,2.76-6.83,6.58-11.29,9.47S34.1,152.58,33.24,151.51Z"/><path class="cls-12" d="M43.08,148.29h0c4.47-2.89,9.21-6.7,11.29-9.47,4.19-5.57-.64-17.85-.82-18.49-2-7-10.19-17.29-10.19-17.29,5.4-6.62,29.38-.3,30.82,10.64s-17.88,10-16,23.39S43.08,148.29,43.08,148.29Z"/><path class="cls-13" d="M12,91c.29-2.7-5.6-8.65-8.7-8.81-9.64-.49,7.6-34.15,18.07-10.43C-.39,48,38,41.86,40.25,48.52s5,15.64,13.51,14.78c0,0-1.51,13.08-5,19.44-.32.58-5.59,12.68-12.5,13.66-3.42.48-9.47-.18-14.67-1.29S11.88,92.38,12,91Z"/><path class="cls-14" d="M21.26,95.7h0c5.2,1.11,11.26,1.77,14.68,1.29,6.9-1,12.17-13.08,12.49-13.66,3.52-6.36,5-19.44,5-19.44,8.5-.85,21,20.56,14.26,29.32S48,87.62,39.86,98.42,21.26,95.7,21.26,95.7Z"/><path class="cls-15" d="M41.22,34.9c2.06-1.66,2.1-9.82.07-12.07C35,15.83,70.11,4.5,61,28.1,62.33-3.36,93.09,18.91,90,25.05s-7.33,14.26-.88,19.53c0,0-10.06,8-16.88,10-.62.18-12.61,4.9-18,.8-2.7-2-6.42-6.66-9.24-11S40.18,35.74,41.22,34.9Z"/><path class="cls-16" d="M44.36,44.51h0c2.82,4.36,6.55,9,9.24,11,5.44,4.09,17.43-.62,18.05-.8,6.82-2,16.89-9.95,16.89-9.95,6.46,5.28.29,28.68-10.39,30.09S68.41,57.41,55.31,59.23,44.36,44.51,44.36,44.51Z"/></g></g></svg>